<?xml version="1.0" encoding="UTF-8" standalone="no"?>
<!-- Created with Inkscape (http://www.inkscape.org/) -->

<svg
   width="204.7155mm"
   height="21.443787mm"
   viewBox="0 0 204.7155 21.443787"
   version="1.1"
   id="svg5"
   xml:space="preserve"
   xmlns="http://www.w3.org/2000/svg"
   xmlns:svg="http://www.w3.org/2000/svg"><defs
     id="defs2" /><g
     id="layer1"
     transform="translate(-2.8061677,-107.94563)"><path
       style="fill:#000000;stroke-width:0.382925"
       d="m 8.322452,128.06147 c -0.934984,-2.23773 -0.72063,-3.33277 0.976851,-4.99032 1.627432,-1.58914 1.889745,-2.48101 0.957311,-3.25486 -0.315912,-0.26218 -0.574387,-0.77913 -0.574387,-1.14877 0,-0.36964 0.258475,-0.88659 0.574387,-1.14878 0.964418,-0.80039 0.64864,-1.904 -0.957311,-3.34569 -1.704809,-1.53044 -1.924381,-2.63172 -0.976851,-4.89948 0.554848,-1.32794 37.596515,-1.32794 97.371828,-1.32794 59.77531,0 95.75865,0 96.3135,1.32794 0.94753,2.26776 0.72796,3.36904 -0.97685,4.89948 -1.60595,1.44169 -1.92173,2.5453 -0.95731,3.34569 0.73205,0.60755 0.73205,1.42875 0,2.16079 -0.92302,0.92302 -0.67656,1.79619 0.95731,3.39162 1.72583,1.68523 1.92321,2.7908 0.88639,4.96503 -0.64531,1.35323 -36.62865,1.35323 -96.3135,1.35323 -59.684853,0 -96.72652,0 -97.281368,-1.32794 z m -4.026134,-6.37721 c -0.591798,-1.10578 0.51362,-2.19721 2.536869,-2.50475 1.508807,-0.22934 1.508807,-0.22934 0.651863,0.59724 -0.47132,0.45462 -0.96387,1.25261 -1.094555,1.7733 -0.296007,1.17939 -1.493736,1.25614 -2.094177,0.13421 z m 199.798012,0.29413 c -0.3144,0 -0.44611,-1.10181 -0.99135,-1.74979 -0.99136,-1.17816 -0.99136,-1.17816 -0.0957,-1.17673 0.49259,7.7e-4 1.45187,0.3406 2.13175,0.75513 1.04049,0.63441 1.1854,0.89176 0.91563,1.626 -0.36798,1.00151 -1.06117,0.54539 -1.9603,0.54539 z M 3.212557,119.70316 c -0.564355,-0.56435 -0.536401,-1.61596 0.05569,-2.09491 0.333048,-0.26942 0.860022,-0.18034 1.732317,0.29281 1.253662,0.68001 1.253662,0.68001 -0.05569,1.45254 -0.95554,0.56378 -1.423642,0.65824 -1.732317,0.34956 z M 205.2729,119.3038 c 0,-1.0006 -1.12271,-0.84159 -0.76585,-0.95147 0.29953,-0.0922 0.84291,-0.42744 1.20752,-0.74494 0.53829,-0.46873 0.77229,-0.48651 1.24451,-0.0946 0.70493,0.58504 0.7566,1.69005 0.10291,2.20082 -0.32768,0.25604 -1.78909,0.63555 -1.78909,-0.4098 z M 8.818879,119.3376 c -0.09869,-0.26326 -0.04308,-0.82329 0.123579,-1.24451 0.246758,-0.62365 0.308017,-0.53478 0.329934,0.47866 0.02799,1.29419 -0.145573,1.58728 -0.453513,0.76585 z m 192.300891,-0.67012 c 0,-0.73713 0.0788,-1.03868 0.17512,-0.67012 0.0963,0.36856 0.0963,0.97167 0,1.34024 -0.0963,0.36856 -0.17512,0.067 -0.17512,-0.67012 z M 5.611761,117.73303 c -1.516382,-0.6599 -1.814921,-1.14897 -1.29471,-2.12099 0.49134,-0.91808 1.918858,-1.04449 1.918858,-0.16993 0,0.33212 0.503694,1.10754 1.119318,1.72316 1.057696,1.0577 1.073507,1.1185 0.287194,1.10434 -0.457669,-0.008 -1.371466,-0.24971 -2.03066,-0.53658 z m 197.065099,-0.245 c 0.58936,-0.50963 1.10048,-1.32216 1.13585,-1.80562 0.0507,-0.69289 0.261,-0.85506 0.99323,-0.76585 0.54984,0.067 1.05787,0.46454 1.24488,0.97416 0.38824,1.05801 -0.73648,1.92357 -2.96903,2.28494 -1.47647,0.23898 -1.47647,0.23898 -0.40493,-0.68763 z"
       id="path318" /></g></svg>
