<?xml version="1.0" encoding="UTF-8" standalone="no"?>
<!-- Created with Inkscape (http://www.inkscape.org/) -->

<svg
   width="1106.6783"
   height="779.42365"
   viewBox="0 0 292.80865 206.2225"
   version="1.1"
   id="svg5"
   xml:space="preserve"
   preserveAspectRatio="none"
   xmlns:inkscape="http://www.inkscape.org/namespaces/inkscape"
   xmlns:sodipodi="http://sodipodi.sourceforge.net/DTD/sodipodi-0.dtd"
   xmlns="http://www.w3.org/2000/svg"
   xmlns:svg="http://www.w3.org/2000/svg"><sodipodi:namedview
     id="namedview7"
     pagecolor="#ffffff"
     bordercolor="#000000"
     borderopacity="0.25"
     inkscape:showpageshadow="2"
     inkscape:pageopacity="0.0"
     inkscape:pagecheckerboard="0"
     inkscape:deskcolor="#d1d1d1"
     inkscape:document-units="mm"
     showgrid="false" /><defs
     id="defs2" /><g
     inkscape:label="Layer 1"
     inkscape:groupmode="layer"
     id="layer1"
     transform="translate(-2.5839059,-2.782492)"><path
       style="opacity:1;fill:#000000;stroke-width:0.233272"
       d="m 294.66477,23.21386 c -0.5396,-0.191362 -0.72626,-0.434914 -0.86114,-1.12361 -0.0948,-0.483612 -0.4242,-1.133666 -0.73224,-1.444577 -0.39273,-0.396406 -0.63641,-1.036098 -0.81573,-2.14123 -0.23464,-1.445998 -0.21648,-1.615178 0.22008,-2.051797 0.2617,-0.261727 0.40884,-0.538777 0.32702,-0.615664 -0.0819,-0.07692 0.0897,-0.45449 0.38122,-0.839123 0.40618,-0.535954 0.46641,-0.771307 0.2578,-1.007461 -0.14969,-0.169475 -0.31935,-0.538379 -0.37703,-0.819802 -0.13482,-0.657675 -1.25121,-2.24784 -1.57817,-2.24784 -0.44899,0 -2.30329,-0.873107 -2.62302,-1.2350709 -0.37129,-0.4203534 -2.38954,-1.2931564 -2.64595,-1.1442509 -0.0987,0.057334 -0.43891,-0.1613362 -0.75597,-0.4859367 -0.93331,-0.9555056 -2.65035,-1.8831459 -3.4857,-1.8831459 -0.47695,0 -0.82452,-0.1348409 -0.91432,-0.3547591 -0.0976,-0.2391783 -0.30584,-0.306761 -0.63894,-0.2074366 -0.27173,0.080978 -0.62422,0.046882 -0.78332,-0.075904 -0.15909,-0.1227756 -0.66828,-0.2565713 -1.13156,-0.2973239 -0.53423,-0.046983 -1.07565,-0.3029964 -1.48032,-0.6999187 -1.07454,-1.0539673 -2.47601,-0.6873255 -2.47976,0.5463554 l -0.85315,0.6244512 -2.68343,-0.1026528 c -1.80646,-0.069105 -2.80923,-0.2051128 -3.06837,-0.4161722 -0.40029,-0.3260314 -3.23292,-0.671191 -5.03138,-0.6130758 -0.57017,0.018469 -1.41825,-0.096199 -1.88468,-0.2546229 -0.74911,-0.2545213 -0.8752,-0.2424863 -1.08105,0.1031197 -0.30684,0.515172 -0.95773,0.4946332 -1.96161,-0.0619 -0.69922,-0.3876069 -0.9324,-0.4154618 -1.61273,-0.1926212 -0.63023,0.2064116 -1.4003,0.1784044 -3.70867,-0.1348917 -1.60233,-0.2174727 -3.16366,-0.5074801 -3.46962,-0.6444622 -0.41345,-0.1850613 -0.67535,-0.1792263 -1.01953,0.02273 -0.25423,0.1494837 -0.88901,0.2717924 -1.41005,0.2717924 -0.74413,0 -1.11191,0.1546085 -1.71443,0.7207009 -0.60305,0.5666405 -1.00084,0.733639 -1.86071,0.7812312 -0.60155,0.033284 -1.20687,0.1668666 -1.34519,0.2968164 -0.28512,0.2678858 -2.56118,0.3271172 -2.56289,0.066669 -7.2e-4,-0.093256 -0.33098,-0.5002754 -0.73416,-0.9044531 -0.8389,-0.8409902 -1.83241,-0.9611172 -3.27265,-0.3957046 -1.09908,0.4314748 -1.94461,0.4314748 -2.40382,0 -0.64617,-0.6071191 -1.40168,-0.4161215 -1.85028,0.4677626 -0.22526,0.4438039 -0.35448,0.8906523 -0.28717,0.9929805 0.21225,0.322642 -1.54257,0.3854047 -2.46301,0.088081 -0.485,-0.1566581 -0.92283,-0.2462917 -0.97297,-0.1991967 -0.05,0.047085 -0.5848,-0.1609914 -1.18817,-0.4624148 -0.60336,-0.3014234 -1.29108,-0.5480501 -1.52826,-0.5480501 -0.23721,0 -0.50509,-0.1122119 -0.59531,-0.2493563 -0.0903,-0.1371444 -0.702,-0.4835419 -1.35951,-0.7697644 -0.94933,-0.4132597 -1.35206,-0.4782347 -1.95591,-0.3155488 -0.41823,0.1126786 -0.79653,0.3064465 -0.84064,0.4306021 -0.0442,0.1241453 -0.39957,0.2257225 -0.78986,0.2257225 -0.39031,0 -1.09843,0.1526297 -1.57361,0.3391725 -0.47518,0.1865428 -1.14855,0.3404002 -1.49635,0.341892 -0.34785,0.00203 -1.10982,0.2591183 -1.69328,0.5724956 -0.6109,0.3281014 -1.63343,0.6259935 -2.41083,0.7023439 -1.28441,0.1261343 -1.36689,0.1028863 -1.69819,-0.4787321 -0.3955,-0.6943577 -1.39125,-1.2510536 -2.23771,-1.2510536 -0.31505,0 -1.10556,-0.2539532 -1.7567,-0.5643469 -0.65116,-0.3103839 -1.48172,-0.5647633 -1.84572,-0.5652808 -0.59722,-8.524e-4 -0.66179,0.07702 -0.66179,0.7975484 0,1.0249758 -0.41424,1.1725013 -1.96818,0.7009538 -1.65532,-0.5023048 -2.29528,-0.4751398 -2.49151,0.1057377 -0.12569,0.3720809 -0.31054,0.4539009 -0.85566,0.3787277 -0.5181,-0.071439 -0.73086,0.00913 -0.83474,0.3167869 -0.20576,0.6091486 -1.18078,0.5189264 -1.64909,-0.1526196 -0.21681,-0.3109013 -0.55416,-0.5652806 -0.74964,-0.5652806 -0.19549,0 -0.35543,-0.1017497 -0.35543,-0.2261183 0,-0.1243585 -0.27074,-0.2261083 -0.60164,-0.2261083 -0.33092,0 -0.60166,0.091023 -0.60166,0.2023629 0,0.1112986 -0.40653,0.2387927 -0.90339,0.2833101 -0.80498,0.072149 -0.90724,0.022934 -0.93869,-0.4511915 -0.0486,-0.7307368 -0.47704,-1.1115346 -0.85326,-0.758054 -0.35703,0.3354584 -0.67381,0.3504464 -0.67381,0.031863 0,-0.1316952 0.13537,-0.1750254 0.3008,-0.096301 0.16546,0.078745 0.0964,-0.01309 -0.15357,-0.2040068 -0.29428,-0.2248397 -0.59107,-0.2797482 -0.84229,-0.1558159 -0.21334,0.1052506 -0.9024,0.1776231 -1.5312,0.160829 l -0.7727,-0.030545 1.9e-4,1.0824821 2e-4,1.0824821 -2.71702,-0.1514323 c -3.03469,-0.1691378 -2.84411,-0.1592357 -3.43838,-0.664534 -0.38045,-0.3235148 -0.89769,-0.4435909 -1.99697,-0.4636426 -0.81592,-0.014917 -1.72717,-0.099852 -2.02496,-0.1887955 -0.37597,-0.1123134 -0.54148,-0.070019 -0.54148,0.1382708 0,0.6609012 -0.90148,0.8584033 -3.39511,0.7438272 -1.34591,-0.061799 -2.56752,-0.020397 -2.71469,0.09214 -0.14717,0.1125163 -1.21514,0.1824838 -2.37329,0.1554913 -1.15819,-0.026992 -2.10576,0.040387 -2.10576,0.1497072 0,0.1093298 -0.11304,0.1331462 -0.25118,0.05297 -0.13818,-0.080267 -0.41028,-0.021818 -0.60475,0.1297977 -0.40473,0.3156097 -4.84861,0.2004247 -5.42194,-0.1405439 -0.18708,-0.1112579 -0.63657,-0.2038545 -0.99883,-0.2057622 -0.36227,-0.00203 -0.63301,-0.069106 -0.60164,-0.1493318 0.0975,-0.2494171 -0.79133,-1.0465291 -1.30876,-1.1736681 -0.35276,-0.08666 -0.52776,0.00609 -0.61733,0.3281622 -0.0747,0.2690935 -0.40187,0.5011481 -0.81569,0.578919 -0.37987,0.071439 -0.69068,0.2072744 -0.69068,0.3019716 0,0.4567726 -4.18584,0.6648385 -5.30462,0.2636845 -0.43954,-0.1576121 -0.77838,-0.1327403 -1.20329,0.088285 -0.81735,0.4252441 -1.45785,0.3973181 -2.86838,-0.1250587 -0.95732,-0.3545359 -1.52008,-0.4185265 -2.67941,-0.3046808 -0.8718,0.085645 -1.53138,0.054087 -1.62477,-0.077629 -0.3847,-0.5427022 -1.6139,-0.890348 -2.43837,-0.6896189 -0.45525,0.1108318 -1.12996,0.1598446 -1.49935,0.1089038 -0.36941,-0.050942 -0.67164,-0.015931 -0.67164,0.077731 0,0.2880592 -0.81762,0.3533486 -1.27911,0.1021353 -0.3502,-0.1906221 -0.53152,-0.1291684 -0.91436,0.3098359 -0.36553,0.419186 -0.77364,0.5706893 -1.74019,0.6459943 -1.10706,0.086255 -1.35907,0.022122 -2.04499,-0.5201238 -0.75999,-0.6008581 -0.86236,-0.6177234 -3.58528,-0.5907917 -1.54163,0.015222 -2.91187,0.1300716 -3.04501,0.2551607 -0.37184,0.3493707 -1.77819,0.2699964 -2.44049,-0.1377432 -0.3643,-0.2242715 -0.59318,-0.2678858 -0.59318,-0.1130541 0,0.1386666 -0.31955,0.2521165 -0.71012,0.2521165 -0.95581,0 -3.19238,-0.4535154 -3.54374,-0.71857 -0.15565,-0.1174377 -0.75128,-0.1818647 -1.3236,-0.1431719 -0.99607,0.06738 -1.04397,0.1040835 -1.1203,0.8597732 -0.0438,0.4341842 -0.2063,0.8650704 -0.36098,0.9575249 -0.15469,0.092445 -1.1309,0.1696572 -2.16935,0.1715549 -1.52554,0.00305 -2.022,-0.086153 -2.58541,-0.4630641 -0.38351,-0.2565915 -0.79848,-0.4077701 -0.92213,-0.3359659 -0.25298,0.1469064 -3.77762,-0.1995926 -4.38004,-0.4306021 -0.22546,-0.086457 -0.5563,0.00609 -0.78384,0.2203343 -0.5676,0.5332954 -1.74438,0.5455639 -2.853971,0.029732 -0.887257,-0.4124583 -0.980278,-0.4180597 -1.186731,-0.07144 -0.244584,0.4106316 -1.521052,0.5198702 -1.76372,0.150935 C 96.66145,4.1777227 93.14492,2.782533 92.372499,2.782533 c -0.56656,0 -0.898797,0.1723769 -1.289711,0.6691918 -0.289623,0.3680525 -0.526567,0.7578613 -0.526567,0.8662474 0,0.4611362 -1.159508,0.7273376 -2.818639,0.6471006 -1.439654,-0.069612 -1.817598,-0.012279 -2.216002,0.3365037 -0.614563,0.5379634 -2.666344,0.6021061 -2.666344,0.083311 0,-0.1854064 -0.377691,-0.5669754 -0.839308,-0.8479311 -0.461627,-0.2809559 -0.840668,-0.6354106 -0.842292,-0.787675 -0.003,-0.30051 -1.215243,-0.9667895 -1.758656,-0.9667895 -0.184588,0 -0.522822,0.1943462 -0.751625,0.4318908 -0.228805,0.2375445 -0.678763,0.493862 -0.999918,0.5695933 -0.321164,0.075702 -0.583934,0.2375141 -0.583934,0.3595082 0,0.5590399 -2.954993,-0.098939 -3.433914,-0.7645892 -0.130041,-0.1804233 -0.281494,-0.1393156 -0.507477,0.1376827 -0.177181,0.2172089 -0.689529,0.4630439 -1.138532,0.5463047 -0.507071,0.094067 -1.140826,0.4832579 -1.67273,1.0273402 l -0.856358,0.8759486 -2.51283,-0.017149 C 65.575621,5.9398922 64.1088,5.9957012 63.698078,6.0738272 63.17975,6.1723625 62.590812,6.0608403 61.772846,5.7093994 61.124661,5.4308695 59.944562,5.1319119 59.150405,5.0450385 58.356246,4.9581753 57.191522,4.6713339 56.562132,4.4076289 55.477072,3.9530076 54.698278,3.9454273 54.698278,4.3894647 c 0,0.1110551 -0.243661,0.1947725 -0.541465,0.1860253 C 53.642405,4.56037 53.639401,4.550426 54.096633,4.3752885 54.529593,4.2094874 54.505409,4.1740928 53.855976,4.0229648 53.458891,3.9305208 52.782313,3.6563738 52.352479,3.4136742 51.800227,3.1018596 51.358125,3.0163258 50.845502,3.1221142 50.44651,3.2044112 49.33621,3.3580046 48.378177,3.4633466 45.781492,3.7488688 44.722999,4.0148774 44.189715,4.5159542 43.830566,4.8533914 43.441579,4.9532334 42.64606,4.9121459 42.061131,4.8819059 41.440742,4.9675519 41.26743,5.1023114 40.836683,5.4373335 38.147222,5.307678 37.33431,4.9126939 36.457819,4.4868307 35.532614,4.5049442 35.350229,4.9515589 35.113539,5.5311171 33.150678,5.2652048 32.297396,4.4971047 31.609004,3.8774331 31.782732,3.8333167 29.131103,3.8505879 c -3.019962,0.019687 -5.236745,0.2508785 -5.236745,0.5462133 0,0.3891797 -2.847673,0.2067974 -3.782914,-0.2422732 C 19.611023,3.9142337 18.682531,3.6476468 18.048159,3.5621129 16.922485,3.4103358 16.872484,3.4292305 15.970357,4.3473626 c -0.743427,0.756613 -1.048516,0.9196135 -1.558622,0.8326995 -0.790839,-0.1347395 -1.519876,0.538491 -1.731641,1.5990543 -0.10326,0.5172929 -0.291887,0.7623669 -0.604628,0.7857062 -0.250004,0.018672 -0.589903,0.044142 -0.755361,0.056522 -0.481082,0.036125 -0.886519,0.647821 -0.894799,1.3499416 L 10.418254,9.6202741 9.0344864,9.4839113 C 8.2733461,9.4089208 7.2320868,9.2824313 6.720499,9.2028439 5.679178,9.0408479 5.3126201,9.3309672 5.4761097,10.187737 c 0.053482,0.279819 -0.00406,0.508758 -0.1276255,0.508758 -0.1235965,0 -0.2295046,0.22894 -0.2353298,0.508759 -0.019079,0.911709 -0.5946418,2.613122 -1.0407222,3.076257 -0.2865281,0.297476 -0.3804814,0.616932 -0.2740762,0.931923 0.089001,0.263603 0.061397,0.601589 -0.061296,0.751072 -0.122785,0.149484 -0.2394401,1.015163 -0.2592496,1.923726 -0.019789,0.908553 -0.1425029,1.838882 -0.2726656,2.067386 -0.1786919,0.313702 -0.1129003,0.563271 0.2685555,1.018917 0.406309,0.485339 0.4828478,0.821994 0.3910154,1.720024 -0.06292,0.61411 -0.02192,1.116578 0.091233,1.116578 0.275771,0 0.2639685,1.974282 -0.012787,2.134988 -0.1199534,0.06961 -0.2929622,0.638019 -0.3844392,1.263017 -0.1262455,0.862361 -0.073676,1.269279 0.2180978,1.687644 0.2114508,0.303208 0.3844393,0.809258 0.3844393,1.124533 0,0.456326 -0.1192836,0.573246 -0.5848283,0.573246 -0.6414563,0 -0.6345046,0.07489 0.1997699,2.148089 0.2001557,0.497444 0.3686994,1.379289 0.3745042,1.959649 0.00508,0.580359 0.1045176,1.089118 0.2192243,1.130581 0.2867313,0.103566 0.6042728,2.675681 0.3303284,2.675681 -0.1196692,0 -0.1693656,0.546519 -0.1104139,1.214472 0.06637,0.752767 0.00508,1.273612 -0.1606887,1.370034 -0.332957,0.193342 -0.3566329,1.485555 -0.0273,1.485555 0.1323547,0 0.2406476,0.401 0.2406476,0.891107 0,0.490118 -0.1082929,0.954005 -0.2406476,1.030862 -0.1323646,0.07682 -0.2406576,0.782672 -0.2406576,1.568459 0,0.96675 -0.1119058,1.515967 -0.3460685,1.698572 -0.7171526,0.559223 0.058037,3.969235 0.8834708,3.969235 0.5818753,0 0.1340118,1.71305 -0.77806,2.853566 -0.9771532,1.22189 -1.1438801,1.649234 -0.7358662,1.88616 0.124713,0.07245 0.2996907,0.588721 0.3888539,1.147336 0.092147,0.5776 0.3317187,1.104775 0.5553779,1.222275 0.3045314,0.159986 0.3868851,0.529134 0.3649749,1.635909 -0.025573,1.289249 -0.09783,1.829669 -0.4727806,3.52886 -0.062819,0.284213 -0.38448,0.61338 -0.7150823,0.731477 -1.0247996,0.366083 -0.8591793,0.549909 0.1715197,1.686051 l 0.9991711,0.858421 c 0,0 0.2630389,1.685149 -0.00382,2.49778 -0.516839,1.57389 0.060424,1.172537 0.060424,1.172537 -0.1695678,1.508259 0.1123421,3.542254 0.417127,4.071541 0.7651949,1.328824 0.8968594,1.742185 1.0508807,3.29927 0.1455171,1.471042 0.1153765,1.619745 -0.4441014,2.190627 -0.9469312,0.966251 -1.3960053,1.688597 -1.3960053,2.245567 0,0.283239 -0.081897,0.514979 -0.1820511,0.514979 -0.3809584,0 -0.7991816,1.805943 -0.5283529,2.281428 0.401651,0.705124 0.9455714,2.51539 0.9484637,3.156625 0.00102,0.317122 0.1200751,0.686961 0.2636436,0.821862 0.3400404,0.319486 0.3382035,2.287405 -0.00406,4.141346 -0.1491501,0.808356 -0.333657,1.852408 -0.4100334,2.320131 0.059584,0.768277 -0.3657665,1.021027 -0.6617426,1.243625 -0.5011453,0.376881 -0.591973,1.184649 -0.1332275,1.184649 0.12109,0 0.2901917,0.411483 0.3757928,0.914418 0.1192837,0.700869 0.3166383,0.992639 0.8451436,1.249419 0.6889909,0.33477 0.6894983,0.33671 0.6894983,2.59037 0,1.35281 -0.096308,2.25533 -0.2406474,2.25533 -0.1323547,0 -0.1874347,0.37247 -0.1978876,0.71447 -0.010756,0.34199 -0.1354449,0.40197 -0.2021498,0.2465 -0.1637637,-0.3813 -0.6797053,0.25817 -0.803241,0.0257 -0.079579,-0.14975 0.2791097,0.57057 0.620236,0.89109 0.8891365,0.83541 0.7241133,1.7772 -0.3795784,1.92534 l -0.8422916,0.11306 0.084942,1.65128 c 0.050842,1.09777 -0.025168,2.03013 -0.188952,2.31768 -0.1803156,0.31656 -0.1888402,0.48109 -0.024864,0.48109 0.1370128,0 0.2491216,0.15863 0.2491216,0.35252 0,0.19388 0.1028229,0.29279 0.2285709,0.21977 0.1257176,-0.073 0.3423137,0.0669 0.4813155,0.31097 0.3818716,0.6704 0.3069872,1.59862 -0.1420058,1.76052 -0.3591902,0.1295 -0.3562676,0.16877 0.032374,0.43573 0.3534565,0.24285 0.3993371,0.48991 0.2661301,1.43339 -0.092655,0.65663 -0.066572,1.13995 0.061601,1.13995 0.1224295,0 0.2765117,0.33069 0.3423845,0.73488 0.065863,0.40419 0.1725421,0.93837 0.2370247,1.1871 0.064441,0.24873 0.025777,1.52062 -0.08616,2.82644 -0.1118652,1.3058 -0.2008053,2.82266 -0.1976491,3.37078 0.00306,0.54814 -0.1019806,1.05912 -0.2335639,1.13556 -0.3578101,0.20777 -0.028721,3.60025 0.3871083,3.99098 0.4136867,0.38869 0.6723578,2.45412 0.4480491,3.57754 -0.1142602,0.5723 -0.2895423,0.81365 -0.5909174,0.81365 -0.6059065,0 -1.4397347,0.90848 -1.6226889,1.76796 -0.085246,0.40079 -0.2513742,0.78461 -0.3690443,0.85294 -0.5177783,0.30067 1.1279473,1.78797 2.5021641,2.2613 0.2316359,0.0797 0.4211458,0.37369 0.4211458,0.65312 0,0.82901 -0.4707711,2.91056 -0.6887372,3.04531 -0.4337298,0.26815 -0.6919744,1.06374 -0.5767503,1.77677 0.088088,0.54544 -0.00914,0.88164 -0.3621434,1.24362 -0.5299666,0.5444 -0.92975,1.49778 -0.7769568,1.85279 0.060132,0.13979 0.167398,1.27234 0.1572291,3.26339 -0.00179,0.34977 -0.2858091,0.76425 -0.2748751,1.16342 0.00843,0.30764 0.356795,0.62961 0.3650608,0.96539 0.020522,0.83361 0.040484,1.75228 0.059583,2.74791 0.041525,2.16483 0.1371649,2.8264 0.4731763,3.27244 0.4669048,0.61982 0.5545966,1.5993 0.1751097,1.95586 -0.2808146,0.26383 0.400291,1.87362 1.3477499,3.18543 0.320576,0.44386 0.5828699,1.11701 0.5828699,1.49589 0,0.71996 -0.792986,3.60058 -0.8451241,4.60031 -0.031719,0.6082 -0.7023428,1.39769 -0.8757601,1.297 -0.112403,-0.0652 -0.2043671,0.39611 -0.2043671,1.02525 0,0.72507 -0.1034624,1.14391 -0.2826009,1.14391 -0.1554218,0 -0.060688,0.22894 0.2105883,0.50877 1.0264841,1.05888 1.355209,2.35151 0.7232821,2.84426 -0.224055,0.17472 -0.2912878,0.83231 -0.2398154,2.34535 0.044044,1.29358 -0.036535,2.42102 -0.2093602,2.73267 -0.2286623,0.41234 -0.2064475,0.58388 0.1194764,0.92227 0.2202191,0.22863 0.4004026,0.4562 0.4004026,0.6567 0,0.20051 0.1127075,0.43 0.2504508,0.50999 0.1377435,0.0799 0.1821222,0.34766 0.098642,0.59483 -0.087377,0.25889 -0.00306,0.61028 0.1988567,0.82891 0.3643254,0.39426 0.3675322,0.50944 0.068806,2.4721 -0.1503679,0.98781 -0.2759436,1.21058 -0.744746,1.32113 -0.4046142,0.0954 -0.6702165,0.42618 -0.9403247,1.17103 -0.3584697,0.98844 -0.3534462,1.06108 0.1053601,1.51987 0.264963,0.265 0.4817619,0.67076 0.4817619,0.90171 0,0.23093 0.4642865,0.83788 1.0317511,1.34875 0.5674747,0.51088 1.1828903,1.282 1.3676103,1.71363 0.2956312,0.69079 0.7061822,1.18221 2.4739105,2.96124 0.2316258,0.23311 0.5691892,0.42384 0.7501563,0.42384 0.180944,0 0.617961,0.41026 0.971134,0.91171 0.432775,0.61445 0.874756,0.95542 1.355594,1.04578 0.466236,0.0876 0.71345,0.27184 0.71345,0.53168 0,0.45565 0.782263,0.66092 1.684582,0.442 0.352178,-0.0854 0.898189,-0.007 1.316849,0.18905 0.480786,0.2252 1.419235,0.33003 2.863048,0.31979 1.553813,-0.0111 2.304769,0.0813 2.71532,0.33417 0.396699,0.24422 0.657684,0.27975 0.867136,0.11808 0.82443,-0.63645 2.98697,-0.11606 3.752378,0.90294 0.399174,0.53143 1.334981,0.37663 1.913436,-0.29383 0.301406,-0.34933 1.000476,-0.46219 2.414596,-0.49874 1.554065,-0.0403 1.815182,0.0131 2.190194,0.44655 0.844494,0.97622 3.070653,0.94774 4.22106,-0.054 0.810171,-0.70547 2.162802,-0.74488 2.910614,-0.0848 0.505854,0.44651 0.568287,0.4508 1.459441,0.10033 0.512046,-0.20137 1.354154,-0.33763 1.871375,-0.30282 0.730457,0.049 0.999064,-0.0363 1.203268,-0.38303 0.144593,-0.24546 0.29555,-0.49391 0.335454,-0.55214 0.08007,-0.11692 4.111995,-0.31525 6.513547,-0.32038 1.077551,-0.002 1.61323,0.0966 1.804914,0.3333 0.149921,0.18511 1.030653,0.46932 1.957168,0.63156 0.926522,0.16225 1.978012,0.48899 2.336654,0.72611 0.358632,0.23712 0.903079,0.43113 1.209884,0.43113 0.306815,0 0.785014,0.14951 1.062683,0.33223 0.464369,0.30561 0.589224,0.27107 1.557649,-0.43098 1.582359,-1.14711 3.67592,-1.48339 5.021793,-0.80663 0.30034,0.15103 1.471722,0.28933 2.603058,0.30735 1.881299,0.03 2.119553,0.0858 2.789707,0.65457 0.868364,0.73692 1.027075,0.76169 1.220054,0.19044 0.08008,-0.23727 0.637895,-0.85766 1.239467,-1.37866 0.963919,-0.83483 1.205644,-0.93724 2.036396,-0.8628 0.518469,0.0464 0.942639,0.0104 0.942639,-0.0802 0,-0.0906 0.286558,0.0847 0.636789,0.38974 0.350238,0.30497 0.804549,0.55449 1.009616,0.55449 0.205068,0 0.678489,0.27514 1.052038,0.6114 0.639478,0.57565 0.79362,0.60773 2.635564,0.54874 1.109996,-0.0355 2.175317,-0.19378 2.462495,-0.36576 0.278358,-0.16669 0.99344,-0.43144 1.589067,-0.58832 0.595637,-0.15688 1.222083,-0.38455 1.392108,-0.50596 0.469798,-0.33541 1.730597,-0.22737 2.221897,0.19039 0.329193,0.2799 0.550569,0.31461 0.896687,0.14056 0.252775,-0.1271 0.992782,-0.17328 1.644446,-0.10264 0.651667,0.0706 2.321961,0.15245 3.711735,0.18177 1.389784,0.0294 2.851772,0.1258 3.248859,0.2144 0.47248,0.10542 0.96152,0.0441 1.41511,-0.17758 0.82568,-0.40346 3.24013,-0.29379 4.24129,0.19265 0.49326,0.23966 0.71661,0.25235 0.929,0.0528 0.15381,-0.14451 0.71279,-0.27733 1.24216,-0.29516 0.5294,-0.0179 1.15918,-0.19965 1.39956,-0.40403 0.53644,-0.45615 1.93063,-0.48157 2.84633,-0.052 0.92405,0.43356 3.53418,0.85613 4.24822,0.68775 0.70798,-0.16696 2.51328,0.26384 2.99249,0.71411 0.27029,0.25395 0.4274,0.26895 0.68806,0.0656 0.18959,-0.14784 0.73268,-0.21568 1.23794,-0.15462 0.91286,0.11032 1.82269,0.0182 5.71326,-0.57881 1.21904,-0.18703 2.95498,-0.28698 3.97083,-0.22859 1.94022,0.11148 4.59158,0.0949 4.80687,-0.0303 0.0725,-0.0423 1.32829,0.0529 2.7904,0.21127 2.60022,0.28164 3.40529,0.50956 4.25281,1.20402 0.37489,0.3072 0.61511,0.30462 2.28621,-0.0245 1.02702,-0.20226 2.02975,-0.35379 2.22828,-0.33671 1.74875,0.15037 2.55196,-0.0616 3.5802,-0.94467 1.00399,-0.86227 1.12653,-0.90444 2.62816,-0.90444 1.15274,0 1.69785,0.10442 2.03309,0.38946 0.28199,0.23979 0.85971,0.39188 1.503,0.39571 0.57474,0.003 1.12526,0.0816 1.22336,0.17385 0.098,0.0922 0.33052,0.049 0.51647,-0.096 0.27988,-0.21825 0.31177,-0.16509 0.18524,0.30863 -0.24252,0.90787 0.45141,1.40516 1.66979,1.19661 0.53884,-0.0922 1.73775,-0.19285 2.66428,-0.22361 0.92652,-0.0308 2.14586,-0.23206 2.70962,-0.44735 0.74271,-0.28358 1.48839,-0.36679 2.70738,-0.30207 0.92529,0.049 1.68234,0.0102 1.68234,-0.0877 0,-0.0973 0.70741,-0.17698 1.57199,-0.17698 0.91639,0 1.66505,0.25263 2.07847,-0.12994 0.58247,-0.53901 1.8907,-0.78012 2.63505,-0.78679 0.36251,-0.003 1.12452,0.37928 2.11339,1.07315 0.3717,0.26082 0.95384,-0.0544 1.38624,-0.0348 0.81541,0.0368 1.72471,0.18871 2.02071,0.33755 0.44538,0.22396 0.57558,0.20779 0.75523,-0.0938 0.1908,-0.32036 0.70786,-0.34987 4.27721,-0.2441 2.67246,0.0791 4.11277,0.0405 4.214,-0.11352 0.0846,-0.1286 0.61308,-0.23383 1.17441,-0.23383 0.56136,0 1.15059,-0.12208 1.3094,-0.27133 0.15885,-0.14924 0.2888,-0.20094 0.2888,-0.11488 0,0.0861 0.4061,0.0127 0.90247,-0.1629 1.53435,-0.54296 2.64352,-0.62956 3.49008,-0.2725 0.86538,0.365 2.49565,0.69413 3.0911,0.62405 0.21135,-0.0249 0.52244,0.11114 0.69126,0.30228 0.18943,0.21445 0.70494,0.34753 1.34624,0.34753 0.57161,0 1.10621,0.10174 1.18803,0.2261 0.28701,0.43634 1.1371,0.21948 1.81591,-0.46328 0.68356,-0.68756 0.68974,-0.68883 2.3226,-0.48081 0.90047,0.11471 1.90795,0.17118 2.23886,0.12545 2.80073,-0.38699 3.15319,-0.37983 3.81145,0.0774 0.99143,0.68871 2.60844,1.41955 3.14078,1.41955 0.26054,0 0.6168,0.13403 0.79173,0.29787 0.87869,0.82303 4.43016,1.14541 5.35759,0.48634 0.61037,-0.43376 1.45035,-0.42127 2.18747,0.0326 0.89948,0.55373 2.18145,0.24863 2.77066,-0.65945 0.25789,-0.39743 0.50116,-0.81236 0.5406,-0.92208 0.0395,-0.1097 0.41677,-0.0319 0.83847,0.17308 l 0.76676,0.37254 0.35349,-0.79488 c 0.29524,-0.66394 0.47496,-0.7949 1.09098,-0.7949 0.40564,0 0.95263,-0.12622 1.21556,-0.28049 0.3805,-0.22327 0.5756,-0.22327 0.95609,0 0.26294,0.15427 0.82449,0.28049 1.24794,0.28049 0.45372,0 0.99338,0.1973 1.31411,0.48042 0.73738,0.65086 2.30315,0.90481 3.12091,0.5062 0.3478,-0.16955 0.75638,-0.30827 0.90795,-0.30827 0.15158,0 0.41459,-0.2091 0.58445,-0.46468 l 0.30886,-0.46468 0.82759,0.48058 c 0.45517,0.26431 0.94054,0.41498 1.07859,0.33482 0.13805,-0.0801 0.22127,-0.0475 0.18489,0.0726 -0.12246,0.40428 1.08093,1.172 1.83576,1.17114 0.40995,-4.5e-4 1.11359,-0.21179 1.56371,-0.46961 l 0.81839,-0.46878 1.13944,0.58268 c 1.29779,0.66366 1.96674,0.7316 2.39787,0.2435 0.40562,-0.4592 1.05109,-0.45728 1.56643,0.0777 0.23722,0.24631 0.54961,0.54309 0.99614,0.6218 0.44657,0.0787 0.87128,0.23334 0.94382,0.3436 0.0724,0.11027 0.67198,0.20048 1.33212,0.20048 1.07958,0 1.24149,-0.0676 1.61021,-0.67361 0.40131,-0.65937 0.97319,-0.97959 2.24779,-1.25866 0.51281,-0.11227 1.07891,0.0175 1.77999,0.67615 l 0.86748,0.81508 0.67713,-0.45783 c 1.05709,-0.71473 1.53383,-0.56825 2.29458,-0.0999 0.80498,0.49557 1.48493,0.22855 2.04514,-0.80325 0.42599,-0.78453 0.57132,-0.87227 1.56819,-0.94677 0.60428,-0.0452 1.29811,-0.0128 1.54189,0.072 0.24372,0.0847 0.73986,0.009 1.10248,-0.16736 0.77044,-0.37557 1.47666,-0.41545 1.68726,-0.0953 0.0818,0.12438 0.38237,0.22613 0.66797,0.22613 0.28556,0 0.956,0.14127 1.4899,0.31391 2.29828,0.74328 3.40927,0.87116 4.2058,0.48415 0.4124,-0.20038 0.8547,-0.30341 0.9829,-0.22896 0.29827,0.1732 1.678,-0.58443 1.678,-0.92143 0,-0.14014 0.37904,-0.44659 0.84231,-0.68099 0.46326,-0.23442 0.84228,-0.50482 0.84228,-0.60089 0,-0.0961 0.13642,-0.17471 0.30312,-0.17471 0.1667,0 0.43834,-0.20349 0.60365,-0.45222 0.16535,-0.24873 0.54937,-0.45223 0.85344,-0.45223 0.30408,0 0.923,-0.25659 1.3754,-0.57019 0.45241,-0.3136 1.225,-0.672 1.71683,-0.79645 0.52074,-0.13174 0.9542,-0.40365 1.03774,-0.65097 0.079,-0.23358 0.41031,-0.48763 0.73648,-0.56454 0.43606,-0.10283 0.59302,-0.29226 0.59302,-0.71569 0,-0.31671 0.11694,-0.78113 0.25986,-1.03204 0.18793,-0.32994 0.18145,-0.76324 -0.0233,-1.56567 -0.26899,-1.05359 -0.25188,-1.1445 0.33971,-1.8051 0.58365,-0.65169 0.60076,-0.73601 0.27097,-1.33521 -0.1936,-0.35179 -0.42243,-1.05332 -0.5085,-1.55899 -0.13378,-0.78625 -0.0635,-1.02311 0.48461,-1.63525 0.54418,-0.60764 0.61933,-0.85674 0.49736,-1.6481 -0.0791,-0.51277 -0.0394,-1.78954 0.0882,-2.83726 0.18232,-1.49777 0.1632,-2.00524 -0.0894,-2.3742 -0.26925,-0.39322 -0.2621,-0.85387 0.0443,-2.84343 0.49058,-3.18589 0.50156,-7.28239 0.0214,-7.97098 -0.51937,-0.74476 -0.84941,-2.43565 -0.62736,-3.21405 0.12122,-0.4249 0.0614,-1.14127 -0.16275,-1.95462 -0.48673,-1.76491 -0.46135,-1.92634 0.41897,-2.66536 0.62959,-0.52856 0.76236,-0.79753 0.71562,-1.44956 -0.0317,-0.4403 0.0539,-0.8651 0.18959,-0.94398 0.40593,-0.23572 0.28159,-0.84437 -0.28911,-1.41516 -0.4447,-0.44475 -0.57096,-0.92918 -0.74033,-2.84099 -0.11233,-1.26766 -0.19785,-3.01263 -0.19008,-3.87769 0.0126,-1.39401 0.0852,-1.6348 0.63916,-2.11743 0.42584,-0.37099 0.58582,-0.69845 0.50199,-1.02744 -0.40305,-1.58124 -0.41356,-2.15519 -0.0542,-2.96294 0.20966,-0.4715 0.36465,-1.27652 0.3444,-1.78894 -0.0202,-0.5124 0.0434,-1.1681 0.14139,-1.45708 0.098,-0.28899 0.0689,-0.79775 -0.0645,-1.13058 -0.13364,-0.33283 -0.31148,-0.89813 -0.39527,-1.25623 -0.0837,-0.35809 -0.57987,-1.04885 -1.10248,-1.535 -0.84075,-0.78209 -0.94982,-1.00667 -0.9467,-1.94924 0.003,-0.99914 0.52004,-2.81408 0.94663,-3.32466 0.1047,-0.12534 0.26054,-0.8384 0.34624,-1.58459 0.14107,-1.2284 0.10097,-1.41202 -0.4237,-1.94202 -0.83511,-0.84349 -1.25771,-1.79524 -1.1653,-2.6245 0.0636,-0.57191 0.30346,-0.85484 1.1496,-1.3567 1.25815,-0.7462 1.46781,-1.23395 1.69004,-3.93173 0.11205,-1.36006 0.0714,-2.0961 -0.13538,-2.45932 -0.1624,-0.28509 -0.33149,-0.93793 -0.3758,-1.45076 -0.0444,-0.51282 -0.15168,-1.30055 -0.23854,-1.75053 -0.12404,-0.64235 0.007,-1.17194 0.61135,-2.46507 l 0.76936,-1.64697 -0.39595,-1.15187 c -0.21778,-0.63353 -0.70974,-1.45752 -1.0933,-1.8311 -0.49987,-0.48689 -0.73605,-0.98596 -0.83404,-1.76257 -0.12743,-1.01007 -0.0796,-1.13861 0.70758,-1.90013 0.46432,-0.44923 0.84424,-0.90643 0.84424,-1.01604 0,-0.1096 -0.48732,-1.00622 -1.08296,-1.99249 -1.16462,-1.92849 -1.31731,-2.76222 -0.70849,-3.86845 0.29842,-0.54217 0.34236,-1.10257 0.21641,-2.758661 -0.15103,-1.985473 -0.13024,-2.116438 0.46509,-2.932465 1.59271,-2.183119 1.70518,-2.949586 0.58394,-3.979544 l -0.76666,-0.704251 0.52602,-1.19239 c 0.28929,-0.655808 0.52598,-1.388351 0.52598,-1.627875 0,-0.239513 0.27923,-0.709304 0.6205,-1.043992 l 0.62045,-0.608498 -0.52802,-0.972493 c -0.55846,-1.028538 -0.80561,-1.297936 -1.56535,-1.706324 -0.53239,-0.286162 -0.51653,-1.107709 0.0327,-1.686527 0.48593,-0.51228 0.41395,-0.925175 -0.26719,-1.532202 -0.64973,-0.579071 -0.74339,-1.316688 -0.363,-2.858561 0.1994,-0.808173 0.15922,-0.966312 -0.3797,-1.494838 -0.78771,-0.772516 -0.59048,-1.598771 0.52985,-2.219843 0.45026,-0.24962 0.8278,-0.58447 0.839,-0.744111 0.1822,-2.600153 0.17626,-2.644214 -0.43522,-3.218749 -0.61821,-0.580847 -0.60914,-1.254637 0.0168,-1.254637 0.18649,0 0.46523,-0.142837 0.61941,-0.317405 0.3642,-0.412317 0.51728,-1.907348 0.21336,-2.083824 -0.14064,-0.08168 -0.16962,-0.66698 -0.072,-1.456481 0.12684,-1.026935 0.078,-1.434055 -0.22016,-1.833971 -0.21077,-0.282722 -0.38319,-0.75083 -0.38319,-1.040237 0,-0.28941 -0.17412,-0.842543 -0.38691,-1.229186 -0.39121,-0.710797 -0.31008,-1.325577 0.4031,-3.054318 0.13765,-0.333672 0.0832,-0.778796 -0.1629,-1.332264 -0.24759,-0.556717 -0.30424,-1.0259 -0.17164,-1.420884 0.10853,-0.324327 0.21894,-1.810712 0.24498,-3.303075 0.0261,-1.492353 0.0896,-3.171248 0.14114,-3.730887 0.0543,-0.589016 -0.0287,-1.160344 -0.19727,-1.35668 -0.89257,-1.040278 -0.97116,-3.875814 -0.14728,-5.313694 0.84104,-1.467816 0.94795,-2.187057 0.4917,-3.307926 -0.23434,-0.575743 -0.36935,-1.250679 -0.29999,-1.499862 0.0693,-0.249194 -0.0529,-0.77832 -0.27168,-1.175829 -0.36345,-0.660363 -0.36562,-0.811511 -0.0251,-1.750508 0.205,-0.56526 0.30394,-1.132296 0.21986,-1.260084 -0.33996,-0.516857 -0.0667,-2.543977 0.42844,-3.178879 l 0.50011,-0.641266 -0.52206,-0.522154 c -0.44939,-0.449426 -0.48935,-0.633563 -0.28706,-1.321995 0.12928,-0.439907 0.18135,-0.850296 0.1157,-0.911972 -0.0656,-0.06169 -0.0442,-0.434083 0.048,-0.827586 0.11269,-0.48201 0.43425,-0.863457 0.98553,-1.169071 0.99919,-0.553915 1.03663,-0.910714 0.12936,-1.232483 z m -1.71762,44.915834 c -0.13236,0 -0.24068,-0.146623 -0.24068,-0.325829 0,-0.179206 0.10832,-0.388713 0.24068,-0.465571 0.13235,-0.07682 0.24064,0.06981 0.24064,0.325829 0,0.256063 -0.10829,0.465571 -0.24064,0.465571 z m -0.71921,113.846986 c -0.13643,0.0792 -0.17677,-0.0116 -0.0947,-0.21278 0.16001,-0.39172 0.3325,-0.46339 0.3325,-0.13815 0,0.11704 -0.10707,0.27495 -0.23789,0.35093 z m -0.50223,-53.35599 c -0.65567,0.19554 -0.77215,0.0558 -0.37686,-0.45216 0.17709,-0.22755 0.44672,-0.3413 0.59917,-0.25279 0.4239,0.24617 0.33131,0.53987 -0.22231,0.70495 z m 0.24281,7.69178 c -0.42418,0.24631 -0.48365,-0.0134 -0.1095,-0.47803 0.30803,-0.38257 0.35178,-0.38907 0.3585,-0.0534 0.004,0.21031 -0.10784,0.44945 -0.249,0.53142 z m -33.79938,70.38456 c -0.0742,-0.0697 0,-0.40406 0.1636,-0.74283 0.26395,-0.54427 0.31796,-0.5674 0.46425,-0.19881 0.1638,0.41275 -0.35795,1.19525 -0.62785,0.94164 z m -25.80703,-1.44518 c -0.0992,-0.11256 -0.2888,-0.28059 -0.42115,-0.37341 -0.13735,-0.0963 -0.0597,-0.17023 0.18048,-0.17221 0.23412,-0.002 0.42116,0.16391 0.42116,0.3734 0,0.20727 -0.0812,0.28476 -0.18049,0.17222 z m -2.70739,1.03372 c -0.13236,0 -0.24065,-0.10775 -0.24065,-0.23946 0,-0.13171 0.10829,-0.17657 0.24065,-0.0997 0.13237,0.0768 0.24065,0.18462 0.24065,0.23947 0,0.0547 -0.10828,0.0997 -0.24065,0.0997 z M 187.52388,4.3654352 c -0.052,0 -0.0945,-0.1526193 -0.0945,-0.3391622 0,-0.1865529 0.10494,-0.3391724 0.23311,-0.3391724 0.12819,0 0.17076,0.1526195 0.0945,0.3391724 -0.0761,0.1865429 -0.18109,0.3391622 -0.23311,0.3391622 z M 180.80165,206.51168 c -0.13238,0 -0.24067,-0.10175 -0.24067,-0.22611 0,-0.12437 0.10829,-0.22612 0.24067,-0.22612 0.13236,0 0.24065,0.10175 0.24065,0.22612 0,0.12436 -0.10829,0.22611 -0.24065,0.22611 z M 156.43699,5.0574489 c -0.24363,-0.2465148 -0.24191,-0.2738626 0.008,-0.1404322 0.17125,0.091125 0.49614,0.035313 0.72197,-0.1240235 0.36967,-0.2608536 0.36882,-0.2468601 -0.008,0.1404221 -0.35039,0.3593559 -0.46922,0.3797728 -0.72197,0.1240336 z M 120.51744,206.28557 c -0.19855,0 -0.36098,-0.14943 -0.36098,-0.33208 0,-0.20228 0.14108,-0.2812 0.36098,-0.20191 0.19853,0.0715 0.36099,0.221 0.36099,0.33207 0,0.11105 -0.16246,0.20192 -0.36099,0.20192 z m -48.488663,0.54591 c -0.155858,-0.14644 -0.07449,-0.22289 0.237217,-0.22289 0.311697,0 0.393077,0.0764 0.237208,0.22289 -0.155848,0.14644 -0.318577,0.14644 -0.474425,0 z m -20.263634,-1.97425 c -0.191985,-0.0722 -0.134952,-0.12576 0.145397,-0.13661 0.253688,-0.0102 0.395836,0.0437 0.315866,0.11876 -0.07987,0.0751 -0.287543,0.0832 -0.461263,0.0179 z m -29.134354,0.29431 c -0.43787,-0.003 -0.472407,-0.0454 -0.180498,-0.22266 0.466579,-0.28329 0.721973,-0.28329 0.721973,0 0,0.12437 -0.243673,0.22456 -0.541475,0.22266 z M 7.4694767,10.526088 c -0.4504644,0.155644 -0.9024511,-0.05145 -0.9024511,-0.413575 0,-0.1761829 0.1985319,-0.3203289 0.4411888,-0.3203289 0.7211003,0 1.0537018,0.5291969 0.4612623,0.7339039 z"
       id="path318"
       inkscape:export-filename="parchment1.svg"
       inkscape:export-xdpi="96"
       inkscape:export-ydpi="96"
       sodipodi:nodetypes="ccsssssssssssscssssccssscssssscsssscsssssscsscsscsscsssssssssscsssssscssscsscccssssscsssccscssccsscsccssssssccsssssccsccsscsssscsscsscsscscccsccccssssccscscccccscscsscccccccscscccccsscscccsscccsccsscscssccsccsscssssssscccccssssssccsssccsssscsccssccccssscscsscccssssssssscsssscssscccsssssssssssscccccssccssscsccssssssssccscscsscsscssscscsscscsscssscssscssscsssssscssssssssccssscsssscssssssscscccssssssssscssssscsssscscsccssssccsscsssssssssscssscssscscsssscsccsscsccssccscssccssccsccsssssssssscssscsscsssscsssscsssssccscsscsscscssscsccsssssccsccsssssscssscsscscscsscsssssscssssssscscssscssssssccccccssccssc" /></g></svg>
