<?xml version="1.0" encoding="UTF-8" standalone="no"?>
<!-- Created with Inkscape (http://www.inkscape.org/) -->

<svg
   width="288mm"
   height="133mm"
   viewBox="0 0 288 133"
   version="1.1"
   id="svg370"
   xmlns="http://www.w3.org/2000/svg"
   xmlns:svg="http://www.w3.org/2000/svg">
  <defs
     id="defs367" />
  <g
     id="layer1">
    <path
       id="path2444"
       style="color:#000000;-inkscape-font-specification:ESGARD;display:inline;fill:#000000;stroke-width:2.36038;stroke-linecap:round;stroke-linejoin:round;-inkscape-stroke:none"
       d="M 11.430598,0.58705734 C 7.9689285,0.49641734 5.1361785,3.3111973 5.2182085,6.7599463 5.2112085,6.4983973 2.4064185,24.964887 0.43539849,27.582925 26.124218,32.825168 8.1492685,40.325567 12.317198,41.224557 c -0.71936,1.076326 -1.44775,2.110224 -2.13691,3.194219 -0.8697895,1.367703 -1.1513695,3.026501 -0.7809895,4.602979 l 0.7232895,10.069692 c 0.29493,0.582861 0.6825,1.114464 1.14831,1.573501 l -3.1929995,17.12889 c 0.0309,0.70072 0.18397,1.39075 0.45283,2.03899 -0.68879,0.34382 -1.14641,0.55347 -2.6732,1.3831 -5.40494001,2.93858 -3.46902,11.10394 2.68453,11.32295 9.3722595,0.3305 20.5114195,-7.07323 29.0167595,-6.84828 5.58442,0.14631 8.37188,-6.67732 4.27176,-10.45717 -0.19472,-0.17942 -0.2476,-0.29154 -0.42604,-0.45931 1.51235,-1.90104 1.73472,-4.51965 0.5641,-6.64658 l -2.06788,-3.65868 c 1.00669,0.36628 2.75533,0.52325 3.92969,-0.69847 -5.37291,-2.9311 5.30459,-3.90671 4.03221,0.28894 0.68932,0.20992 1.4112,0.2957 2.13073,0.253 l -0.008,1.63407 c 0.20391,0.91661 0.61951,1.77308 1.21425,2.50138 -0.11235,0.17175 -0.21591,0.34892 -0.31013,0.53117 -1.2265,3.42117 -1.90896,5.64017 -2.30383,7.2147 -0.19743,0.78728 -0.32758,1.37744 -0.40955,2.11443 -0.041,0.36849 -0.10327,0.71829 -0.016,1.56683 0.0188,0.18275 0.20339,0.63249 0.25397,0.89606 l -0.0901,-0.0719 0.23646,1.02232 c 0.69112,2.98916 3.52385,4.98594 6.58332,4.63993 2.92325,-0.33093 6.20942,-0.27571 9.68255,-0.19707 0.0455,9.9e-4 0.091,0.002 0.13652,0.002 2.04298,0 5.25402,-0.15309 8.11954,-0.52142 2.97993,-0.42328 5.19508,-2.96282 5.20009,-5.96145 0.61748,0.77749 1.3181,1.52459 2.15443,2.20218 3.12409,2.53115 7.3462,3.74254 12.38615,3.88397 0.0567,0.002 0.11374,0.003 0.17052,0.003 2.22273,0 4.52823,-0.28688 6.87231,-0.78469 1.069282,1.42446 1.725042,4.93656 -0.98602,13.82895 l -2.99569,11.216712 c 0.028,0.533 0.14029,1.05783 0.34515,1.55092 -0.5238,0.26139 -0.87208,0.42098 -2.03335,1.05209 -4.11149,2.23538 -2.63887,8.44657 2.04212,8.61319 7.129412,0.25148 14.916082,-3.56651 21.386112,-3.39539 8.54914,0.32995 4.72371,-6.71863 1.60474,-9.59394 -0.14833,-0.13652 -0.18767,-0.22183 -0.32353,-0.3495 1.15046,-1.44612 2.96452,-1.79903 2.07406,-3.41695 l -1.5728,-2.78314 c 1.48085,0.95703 3.38021,0.98693 4.89048,0.0765 -1.07461,-1.35207 1.72847,-0.16702 2.78705,-0.19605 l -0.009,1.243 c 0.15453,0.69728 0.47141,1.34895 0.9242,1.90298 -0.0894,0.1307 -0.16437,0.26516 -0.23594,0.4039 -0.9329,2.60215 -1.45188,4.29012 -1.7526,5.48724 -0.15016,0.59851 -0.24898,1.04674 -0.31168,1.60686 -0.028,0.27998 -0.0806,0.54524 -0.0164,1.19064 0.0163,0.14086 0.15603,0.4866 0.19578,0.69129 l -0.0716,-0.0549 0.18083,0.77802 c 0.52827,2.27088 2.68195,3.78623 5.0069,3.52319 2.2239,-0.25177 4.72232,-0.20956 7.36431,-0.14985 0.0357,8.2e-4 0.071,9.9e-4 0.10355,9.9e-4 1.55409,0 3.99653,-0.11709 6.17632,-0.39722 1.73153,-0.2484 3.17241,-1.45252 3.719,-3.108 0.77136,0.80058 1.7359,1.55955 2.88905,2.07953 2.30131,1.03767 4.97228,1.32428 8.46264,1.12444 4.63797,-0.006 8.80413,-0.40038 12.7447,-0.2951 2.66344,1.30779 3.25327,2.51365 5.45252,5.2522 1.57419,2.03781 -0.63264,5.70937 -0.59862,5.36407 -0.24404,2.43401 1.47152,4.63101 3.89981,4.99404 1.14044,0.17029 2.59019,0.41848 4.37995,0.34231 4.05864,-0.0216 8.43823,-0.90043 12.51752,-2.68358 4.12974,-1.80518 8.05837,-7.8385 10.36309,-12.09019 0.43793,-0.81605 0.6186,-1.74516 0.51671,-2.6651 2.11179,1.12471 4.67558,1.69735 7.61468,1.77981 0.0445,9.9e-4 0.0896,0.002 0.12982,0.002 3.51087,0 8.93588,0.71613 12.69371,-0.68771 1.43161,-0.53494 2.50386,-1.74295 2.86123,-3.22398 0.9491,-3.93133 -0.16366,-6.08011 2.24561,-7.11464 0.24746,-0.10628 0.47695,-0.23102 0.69187,-0.36847 0.0839,0.017 0.16493,0.0403 0.25037,0.0539 l 13.0162,3.44723 c 1.85624,0.29553 3.74502,-0.28445 5.11199,-1.56991 2.92898,-2.75574 5.82924,-5.64559 8.5564,-8.4423 0.46541,-0.478132 0.84786,-1.029822 1.13234,-1.632522 l 15.12581,-9.70583 c 0.9636,-2.08253 0.65856,-4.5291 -0.78718,-6.3135 1.34507,-3.26837 0.78408,-8.20672 1.53417,-11.38249 0.40623,-2.00721 -0.2374,-4.0827 -1.70932,-5.51187 -2.30612,-1.41628 -3.02523,-2.05317 0.0211,-4.01998 -0.74083,-2.079849 4.38132,-14.852741 4.59116,-15.808399 2.0515,-3.521911 3.30555,-5.593076 5.83993,-10.868246 1.8343,-3.779105 -1.34931,-12.290626 -5.54319,-12.697327 -5.5936,-0.541755 -13.35588,4.398979 -18.22247,4.950936 -12.71429,-0.308919 -5.93279,2.77223 -8.26121,3.709994 -3.35156,1.469087 -7.26366,-0.401688 -9.54553,-0.873482 -4.63873,-2.027474 -3.54082,2.184596 -4.9832,3.724363 -2.86016,6.357968 0.23269,-3.478538 -7.63219,-1.740807 -0.57014,0.174764 -1.06444,0.438061 -1.60526,0.648184 -1.66255,-1.283461 -3.87467,-1.615536 -5.84302,-0.877076 -3.42108,1.499553 -6.39731,2.009977 -8.02269,1.387207 -3.19746,-1.224764 -6.77716,0.43468 -7.89596,3.660212 l -4.11464,8.765626 c -0.62874,-1.051015 0.28385,-3.861993 -0.27458,-4.899103 -0.11683,-0.216997 -0.13382,-0.283404 -0.22513,-0.4701 l 0.0257,-0.07544 c 1.51347,-4.338002 -2.20049,-8.702756 -6.74404,-7.925501 -6.36565,2.803257 -19.24283,3.888668 -21.17438,4.605545 -3.27937,0.787065 -4.86327,-2.413942 -6.79505,1.751586 -0.19019,0.410111 -0.71984,1.069448 -1.06227,1.542709 -0.62921,-2.36063 -2.62489,-4.110284 -5.05533,-4.431567 -5.43687,-0.65255 -11.36033,-1.395971 -16.81709,0.768275 -1.51075,-2.499614 -6.24623,-1.924998 -8.98399,-0.888366 -1.16884,0.490272 -3.47848,0.939627 -6.07227,1.466241 -1.07719,-0.739025 -2.36572,-1.111023 -3.67263,-1.059779 l -12.87143,0.865785 c -2.00012,0.268402 -3.73453,1.5122 -4.62516,3.316363 -0.0975,-4.089342 -4.16594,-6.898169 -8.04382,-5.553445 -3.978622,1.465949 -12.659352,1.719265 -16.913432,0.436741 -3.78098,-1.13987 -7.62772,1.574287 -7.80322,5.505716 -0.0214,0.480079 -1.10809,2.243022 -3.37022,3.784923 -0.98376,0.812153 -1.68464,1.913563 -2.00194,3.14649 -0.52218,-1.375067 -1.07895,-2.977377 -1.68975,-4.812882 0.0684,-0.374793 0.12676,-0.730646 0.21689,-1.220926 l 2.15597,-1.406709 c 2.44496,-1.595122 3.39678,-4.702565 2.26313,-7.386117 -0.58703,-1.389063 -0.82302,-5.557295 -2.76277,-10.146673 -1.12996,-2.674341 -4.01131,-7.445551 -6.85841,-6.83339 v -5.12e-4 c -5.11824,4.474846 -12.89355,1.922658 -22.12672,4.460074 -1.65413,0.55379 -2.98809,1.791932 -3.65975,3.396424 -1.04725,-2.629515 -7.07845,-14.0137697 -9.88192,-13.5636928 -4.2624,0.8607218 -14.012,-4.3430549 -19.98125,-9.20852486 z M 205.33723,39.182495 c 0.0285,-0.0014 0.11707,0.1018 0.16073,0.376182 -0.0391,-0.08882 -0.15016,-0.301304 -0.16537,-0.342823 -0.008,-0.02122 -0.005,-0.0329 0.005,-0.03336 z" />
    <path
       id="path2289"
       style="color:#000000;font-size:96px;-inkscape-font-specification:ESGARD;white-space:pre;fill:#ffffff;stroke-width:12.1464;stroke-linecap:round;stroke-linejoin:round;-inkscape-stroke:none"
       d="m 9.4041794,4.1448408 c 0.0792,3.3267596 -1.467353,13.4467202 -3.6059814,16.2982302 1.9802084,0 6.665911,2.391873 8.566919,2.233455 l 0.396358,5.306653 c 10.703709,2.940429 0.05286,14.65371 -1.452108,17.029968 l 0.725021,8.489404 c 0.633669,-1.108919 3.47225,-1.598694 4.264339,-2.549198 L 12.057764,76.38591 C 15.226101,80.98 10.236298,82.24773 6.7511114,84.14874 15.701682,84.46557 26.854074,77.01386 35.804635,77.25149 32.636288,74.32077 30.33937,71.46976 29.468071,66.71725 l 5.306653,1.89962 -6.018754,-10.69185 c 0.158409,-4.594095 0.791629,-9.030974 1.108459,-13.308231 2.138628,1.504963 5.068429,3.327106 6.494177,5.228105 l -0.633036,2.376599 c 2.455468,1.584172 4.673147,4.040117 5.782076,5.149037 l 2.217436,-3.01067 2.692859,1.74253 c 0.792089,-2.376258 1.188763,-6.890734 6.495727,-12.197702 l 1.345655,3.325895 -0.07906,16.239317 2.931604,2.2965 -2.377116,2.77193 c -2.376258,6.65352 -2.533986,8.39587 -2.375566,8.39587 l 0.237195,1.02939 c 3.485176,-0.39604 7.050614,-0.31589 10.535791,-0.23668 1.663378,0 4.911008,-0.15859 7.366475,-0.47542 l -0.238745,-1.34721 c -0.712869,-3.96042 0.237504,-5.22779 0.633553,-6.25749 -2.376257,-3.80201 -4.832055,-10.13765 -5.228104,-12.83075 2.455467,0.31683 5.150178,-0.79278 7.368025,-1.90169 -5.940644,-2.13863 -7.050755,-9.029699 -9.030973,-14.574303 0.15842,-1.108919 0.792427,-4.356005 0.950846,-5.385717 l 4.355807,-2.852539 c -1.267339,-3.009928 0.14596,-8.857057 -1.121379,-11.866976 -6.970353,4.906835 -16.6206,0.857998 -23.511743,2.759004 4.514886,3.643589 1.346375,7.60335 -0.475423,10.058818 1.742588,-0.158418 3.802283,-0.31603 5.544881,-0.157613 -2.376267,2.930711 -6.179119,7.12856 -8.080127,8.950358 C 39.368211,39.231505 32.583818,25.765977 30.207561,23.072884 l 3.089217,-0.554488 -2.613794,-9.664009 C 24.82155,14.042515 15.888763,9.5113584 9.4041794,4.1448408 Z M 279.53497,25.258281 c -5.47145,0.06323 -11.81723,4.224031 -17.16381,4.224031 0.47525,3.089136 -0.80528,6.25692 0.14522,9.425265 1.18813,-0.396043 1.20219,-0.951278 2.2319,-0.713652 0.23763,1.10892 -3.5295,11.268331 -3.5295,12.535669 -2.61388,-1.425754 -4.29038,-1.029541 -6.74584,0.475423 4.99013,3.960433 5.17487,11.551493 0.89762,16.541623 -1.34655,-3.16833 -3.80249,-6.57407 -5.14904,-8.39587 l 2.45618,-2.13992 c -2.21785,-2.05943 -0.64768,-6.876814 0.30282,-9.886733 0.63367,-0.07921 1.90172,0.396072 2.45618,0.554488 0.47526,-3.48517 6.03742,-15.35974 4.96611,-15.124658 l -3.8747,0.850077 c -4.22629,0.927388 -6.17135,0.430495 -10.36939,-0.4408 -2.21784,2.376258 -4.8217,10.67512 -4.66328,13.922665 l 3.32744,0.07906 c 0,3.722797 -3.07664,8.937961 -5.4529,11.789471 3.08914,4.7525 6.97047,8.69122 5.06946,14.23582 7.60402,1.18813 10.376,4.29818 15.28692,2.15956 0.0792,7.68321 -14.77644,13.02141 -17.86557,15.87293 -0.79209,-1.34654 -1.82142,-2.85179 -2.77193,-4.11914 l 0.31575,-0.31574 c 1.42575,0.95051 3.8031,-0.62096 5.38727,-1.57148 l 0.15813,-5.08238 c -0.76284,-14.18138 -18.89085,-5.79855 -17.4253,6.65386 -0.55446,1.50497 1.58394,2.85037 2.69286,4.03851 1.98022,2.05942 5.54397,5.07017 4.9103,7.525653 l 13.05605,3.471107 c 2.8515,-2.693087 5.7033,-5.544497 8.39638,-8.31681 l 15.17272,-9.77356 c -0.79209,-0.79208 -1.90074,-2.45555 -2.13837,-3.08922 1.90101,-3.72281 1.51808,-9.49184 2.46858,-13.53147 -1.26734,0.63367 -2.92976,2.06025 -4.51393,1.82262 0.71288,-8.47531 1.02839,-7.44505 3.0086,-7.99951 -0.87129,-2.45546 7.14223,-18.361209 7.69669,-20.895884 l -2.53525,0.315743 c 0.0792,-1.425755 -1.25364,0.846233 -0.69918,-0.73794 0.55446,-0.712877 2.6135,-2.376483 2.77192,-3.010152 l 2.805,-11.30422 c -0.35644,-0.03465 -0.71734,-0.04866 -1.08211,-0.04444 z m -54.00032,10.235551 c -150.356433,-23.662555 -75.17822,-11.831277 0,0 z m 0,0 c -3.22223,0.706411 -8.44804,1.351067 -10.82414,0.437182 l -4.73925,10.600387 c 0.15842,1.821798 1.74204,3.010957 3.72226,2.852539 0.0792,1.029712 0.39682,1.900458 -0.71211,2.2965 -2.05941,0.63367 -3.63185,7.66953 -2.76055,12.1052 l 1.26814,-0.55397 c 0.0792,4.75252 -0.87121,9.42653 -2.6138,13.86221 1.98022,0.0792 4.27758,0.23667 6.09937,0.23667 v -1.18752 l 0.0791,1.18752 c 3.48517,0 7.04959,-0.2375 10.53476,-0.63355 0,-2.69309 -0.47576,-5.38591 -1.42627,-7.84138 l -2.2965,0.31574 c -1.42575,-7.04956 1.09449,-18.362503 8.22327,-21.610048 0.55446,2.772293 -2.29667,4.436566 -4.19768,4.357357 0.0792,0.792086 -1.01588,7.193251 -0.77825,7.826911 7.04957,0.79209 15.1952,-7.668664 14.48232,-14.005345 -1.10892,-4.118848 -5.24176,-6.561875 -5.40018,-10.839132 -4.11884,1.267329 -9.0961,5.610227 -11.94759,8.620146 0.11875,-1.900077 1.52562,-6.06223 3.28713,-8.027417 z m -26.90378,-0.196371 c -5.06936,0.871294 -13.61102,4.25079 -18.75958,3.458704 -1.58418,0.712878 -3.4858,0.55446 -5.06997,0 -1.74259,3.009928 -4.35532,4.211143 -4.90978,7.617106 l 2.93109,0.07906 c -0.71287,1.900999 0.31577,3.644076 0.87023,5.14904 0.47525,1.742589 -5.05647,8.461909 -6.79907,10.521329 1.58418,2.93071 3.09068,6.02025 4.27881,9.18858 -0.23561,1.76584 -0.87824,2.47196 1.74201,6.01927 l 24.39644,-0.23719 c 0.63367,-6.73272 4.35535,-13.06989 9.74153,-17.98082 -7.28719,-0.79208 -6.34856,-5.45209 -7.14065,-12.739274 -1.10892,-1.900999 -2.31015,-7.908194 -1.9141,-9.254732 z m -57.09574,1.332735 c -4.89878,0 -12.58171,3.393214 -16.54214,6.165515 0.47525,-1.584172 2.29699,-2.613476 3.16828,-3.643188 l -12.91136,0.871781 -1.82108,11.088729 4.59456,-0.396358 c -0.47524,2.851501 -1.42694,5.623995 -2.77348,8.158675 0,0.9505 -0.0778,5.86022 0.0806,6.65231 l 0.13177,1.45262 c -0.15841,3.6436 -0.29134,5.99469 -2.35076,9.00462 5.22776,1.82179 9.98041,0.95019 15.60422,-0.39636 l 0.47542,-7.76283 -1.82108,0.47542 -0.96325,-0.0806 c -1.23389,-0.20773 -2.07624,-2.05021 1.12035,-7.5675 -5.56661,-10.568681 -0.97141,-7.480449 0.31833,-7.640361 1.10891,0.316835 0.49992,0.06197 2.7404,-0.03101 2.71385,-0.310498 3.3701,-1.935598 4.63744,-2.331641 -0.31683,3.802002 -0.56716,14.483092 -1.28003,18.047482 -0.31684,1.66338 1.18945,5.59435 1.26866,5.67356 l 0.0786,0.31574 c 2.9623,0.92369 5.7684,-2.59448 8.71368,0.66301 l 4.03851,2.21898 c -3.96042,-5.22777 -4.98921,-9.58477 -0.79116,-14.81253 -1.42575,-3.32676 -0.80519,-8.14481 -0.48835,-11.233943 2.37625,0.396042 4.75205,-0.793059 6.81147,-1.743563 -1.10891,8.633736 -2.52115,18.997286 -1.1746,27.551806 l 3.40496,-1.26658 c 2.45547,2.69309 5.94167,0.2365 8.55555,-0.23875 0.55446,0 1.97873,0.55434 2.53318,0.63355 -0.31683,-7.4456 -8.6452,-18.60097 1.73116,-22.00692 -5.30698,-3.009937 -8.71406,-9.122035 -5.94176,-15.617141 -6.57431,-0.792077 -16.39601,0.1724 -21.46535,4.845699 -0.55446,-2.29705 -0.15796,-4.753166 0.31729,-7.050216 z m -37.29488,0.778247 c -5.782227,2.138633 -14.811958,2.377829 -20.831802,0.556039 -0.15842,3.564379 -3.009354,6.494585 -6.019271,8.554 l 4.434871,0.475423 c -1.346548,3.168337 -2.468093,5.386891 -5.87406,8.159195 7.128773,7.92085 -1.571562,21.7022 15.299842,22.17745 3.405963,0 8.000253,-1.02947 12.43593,-2.69285 1.50497,-6.25747 4.04052,-9.42581 8.63462,-11.40603 -3.24755,-1.82178 -5.22803,-4.51577 -3.56465,-8.63461 -6.4951,-1.267338 -14.652977,3.01121 -17.425285,7.84293 1.504968,1.58417 3.643298,2.69212 5.861138,2.5337 0.55446,-0.63367 1.10849,-1.26662 1.66295,-1.82108 0.0792,3.08914 -3.16837,6.1784 -6.257499,5.62394 -1.584168,-1.02971 -3.326673,-4.75287 -2.613794,-7.20834 4.752503,-5.38618 11.64372,-8.555062 18.77249,-9.109522 -3.48517,-4.198049 -5.14915,-9.584858 -4.51548,-15.050245 z m -8.316807,8.080127 c -0.23763,0.712879 1.26835,3.327819 2.29805,3.407028 -3.00992,0.712877 -7.842406,4.117463 -9.268164,6.176882 -0.712879,-3.564375 3.564143,-8.791823 6.970114,-9.58391 z m 87.987907,2.786394 c 1.58417,0.158416 3.40518,0.316575 4.43488,0.712618 0.87129,2.613884 1.12316,8.699418 2.70732,11.154878 -3.08912,5.38618 0.39484,9.50524 -9.03097,8.71316 -0.55446,-2.21785 -2.37638,-4.9905 -3.6437,-7.20835 1.18812,-3.56437 4.10673,-9.887127 5.53247,-13.372306 z M 140.98839,74.72451 c -5.30238,1.14483 -13.03846,1.3098 -18.28054,2.75591 3.43444,2.77166 1.37085,3.89559 -0.015,5.76347 1.32562,-0.12064 2.89122,-0.24052 4.2168,-0.11989 -1.80758,2.2294 -4.69929,3.7725 -6.14537,5.15834 -1.74732,-1.98838 -4.39863,-3.04978 -6.20634,-5.0984 l 2.35025,-0.42168 -1.98851,-5.50199 c -5.06565,-1.57223 -8.81164,-1.35481 -13.39091,-1.47484 0.0631,2.53064 -2.154317,5.16945 -3.781167,7.33857 1.50636,0 3.313807,-0.12097 4.759917,-0.24133 l 0.30024,-0.91364 c 1.96807,5.5547 0.17349,9.87774 0.1819,9.94151 l -4.060217,17.52038 c 2.410097,3.49471 -1.38582,4.45899 -4.03696,5.90507 6.808677,0.24107 14.603527,-3.60121 21.412127,-3.42047 -2.41008,-2.2294 -4.15705,-4.39819 -4.81986,-8.01346 l 2.42104,0.41754 -2.96261,-7.106017 c 0.12008,-3.494723 0.60219,-6.869203 0.84336,-10.122903 1.62685,1.14483 3.85723,2.53041 4.94181,3.9765 l -0.48369,1.80816 c 1.86788,1.20506 3.55514,3.07303 4.3987,3.916563 l 1.68775,-2.289783 2.04846,1.32498 c 0.60252,-1.80765 0.9032,-5.24151 4.94026,-9.2785 l 2.67529,7.48068 -1.71307,7.40265 2.2288,1.74666 -1.80712,2.10891 c -1.80771,5.06133 -1.92868,6.38669 -1.80816,6.38669 l 0.18138,0.78342 c 2.65122,-0.30124 5.36227,-0.24055 8.01347,-0.18035 1.26531,0 3.73546,-0.1208 5.60327,-0.36174 l -0.17983,-1.02474 c -0.54242,-3.0127 0.18001,-3.97662 0.48163,-4.75992 -1.8076,-2.89219 -3.67579,-7.712007 -3.97702,-9.760637 1.86783,0.24106 3.91617,-0.602853 5.60327,-1.446423 -4.51901,-1.62686 -3.71199,-6.86891 -5.21828,-11.08667 0.12008,-0.84361 0.60174,1.63697 0.72192,0.8537 l 3.31452,-7.1205 c -0.96405,-2.28965 -1.49056,1.09438 -2.45463,-1.19527 z m 55.81572,5.31699 c -3.19348,2.53067 -11.87015,3.01224 -17.11214,2.1084 -5.42293,7.77275 5.00102,7.77265 -5.54333,16.328723 2.28965,1.50635 4.63939,3.977237 4.75992,5.845117 0.18115,1.38582 -0.5422,3.49445 -2.34973,3.67523 -0.18114,0.06 -1.86742,-0.42138 -2.1084,-0.48163 -0.0628,2.83192 2.22957,5.48246 5.12165,4.15685 -0.42136,2.04865 -2.16905,3.79585 -4.03696,4.75992 1.98844,2.22938 8.60867,4.76108 5.12165,11.01328 1.20509,0.18097 2.28994,0.36209 3.55534,0.30179 6.80873,0 15.78643,-6.43484 19.04018,-12.46022 -3.73576,-2.59094 -5.60404,-9.21811 -3.55534,-14.03842 -2.59096,1.32559 -5.42281,2.47047 -8.3752,2.71146 4.69979,-1.92809 8.8569,-5.965487 10.96574,-10.60503 l -4.21731,-1.26504 c -0.66261,-1.02433 -0.60304,-1.98844 0.24081,-3.91656 0.90382,-2.10888 0.12136,-3.91647 -0.54157,-5.54333 -0.42141,-0.84353 -0.72361,-1.74695 -0.9648,-2.59054 z m 25.68422,2.18333 c -148.325553,-54.816553 -74.16278,-27.408277 0,0 z m 0,0 c -4.07596,0.35264 -10.26869,0.58614 -12.84935,-0.19482 -0.12009,2.71142 -2.29042,4.94052 -4.58008,6.5071 l 3.37499,0.36121 c -1.02433,2.41016 -3.13377,4.09796 -5.72472,6.20686 5.42294,6.02537 -8.92456,14.86386 11.24479,15.22026 2.59094,0 9.38624,2.51698 12.76047,1.2516 1.14483,-4.76007 1.4218,-8.82015 4.91649,-10.3265 -2.47043,-1.385817 -3.97682,-3.435407 -2.71146,-6.56859 -4.94081,-0.96408 -11.14668,2.291073 -13.25552,5.96656 1.14483,1.20507 2.77145,2.04751 4.45864,1.92702 0.42137,-0.48201 0.84362,-0.96367 1.26504,-1.38545 0.0628,2.3499 -2.41003,4.70007 -4.75992,4.27829 -1.20505,-0.78333 -2.53073,-3.61501 -1.98851,-5.482867 3.61531,-4.097263 8.76075,-6.508053 14.18363,-6.929813 -2.21376,-2.66655 -7.18831,-8.85901 -6.33449,-10.83086 z m -60.63868,0.2868 c -1.00172,-0.0165 -2.04088,0.0314 -2.22157,0.2403 -5.02725,1.0686 -6.02587,-0.18035 -9.76168,-0.18035 -1.02431,1.86786 -1.44586,4.75942 -3.55482,5.36194 l 3.37499,4.038 c 5.23781,-0.36791 3.20634,-2.57801 5.67666,-2.39727 1.26535,-0.60247 3.86257,-0.44455 6.07198,0.46922 0.12009,0.72312 0.12033,1.56674 0.063,1.98851 -2.41021,-0.12028 -4.9406,1.32512 -7.29051,1.20458 -4.2178,-0.54223 -7.35003,3.072993 -9.33845,11.5688 6.80871,0.48198 0.78162,7.9534 13.43536,7.17011 4.57926,0 9.03899,-0.4825 13.61829,-0.30179 v -6.74843 c -1.02422,0.06 -2.77291,-0.66262 -2.89336,-2.04845 0.54239,-2.4704 0.60341,-5.121037 0.96479,-7.65173 0.90378,0.54226 1.92782,0.90351 2.89182,1.265043 -0.48237,-3.434493 1.50627,-6.748983 -3.49488,-8.556593 -0.36117,-0.96403 -0.78264,-2.5304 -0.9033,-3.67522 -0.12009,-0.0601 -2.82605,-1.3162 -2.94659,-1.3162 -0.0281,-0.0312 -2.68744,-0.41541 -3.68918,-0.43047 z m 57.30916,5.24206 c -0.18113,0.54226 0.96394,2.53129 1.74719,2.59157 -2.28958,0.54223 -5.96572,3.13182 -7.05022,4.69843 -0.54244,-2.71142 2.71211,-6.68746 5.30303,-7.29 z m -27.29549,1.32498 h 5.2e-4 c 0.42134,1.68711 1.20541,4.45927 1.44642,5.84513 -0.54249,0.6025 -3.07375,2.169843 -6.8094,3.796663 -0.42141,-0.72301 -1.0239,-1.50649 -1.38545,-1.98851 0.24105,-1.084573 0.72273,-3.555553 1.2051,-5.724713 l 0.24081,0.54312 c 1.80763,1.14481 3.61483,-1.08586 5.302,-2.47169 z m -31.98978,8.702323 c 1.62488,0.0823 2.95897,1.7561 2.22468,3.469547 -0.28098,0.0618 -1.28882,0.59945 -1.28882,0.59945 l 0.3018,2.36264 1.16737,1.01441 v 0.24185 c -1.02419,1.08455 -3.55477,1.26465 -4.75992,0.54157 -0.0628,-1.38584 -3.43347,-4.03644 -2.71043,-4.94027 1.14484,-1.0243 3.19253,-1.506567 3.91552,-3.073197 0.38383,-0.16927 0.77447,-0.23451 1.1498,-0.21549 z m 33.55713,12.447807 c 0.1201,0.66276 0.0628,2.10883 0,3.13315 -0.42138,-0.42175 -0.98274,0.48111 -1.52497,0.30024 0.84366,3.31393 -1.72931,3.37481 -5.10357,4.51962 -0.54246,-0.54226 -1.02434,-0.96442 -1.50636,-1.44643 -0.0628,0 -0.12041,-0.0599 -0.12041,-0.0599 2.3498,-0.54227 4.03708,-3.37427 4.3987,-5.12165 -0.84368,-0.06 -2.10862,-0.0607 -2.47014,-1.02475 2.10884,0 4.94091,-0.1798 6.32675,-0.30024 z" />
  </g>
</svg>
