<?xml version="1.0" encoding="UTF-8" standalone="no"?>
<!-- Created with Inkscape (http://www.inkscape.org/) -->

<svg
   width="288.00027mm"
   height="133.00008mm"
   viewBox="0 0 288.00027 133.00008"
   version="1.1"
   id="svg370"
   xmlns:inkscape="http://www.inkscape.org/namespaces/inkscape"
   xmlns:sodipodi="http://sodipodi.sourceforge.net/DTD/sodipodi-0.dtd"
   xmlns="http://www.w3.org/2000/svg"
   xmlns:svg="http://www.w3.org/2000/svg">
  <sodipodi:namedview
     id="namedview372"
     pagecolor="#ffffff"
     bordercolor="#000000"
     borderopacity="0.25"
     inkscape:showpageshadow="2"
     inkscape:pageopacity="0.0"
     inkscape:pagecheckerboard="0"
     inkscape:deskcolor="#d1d1d1"
     inkscape:document-units="mm"
     showgrid="false" />
  <defs
     id="defs367" />
  <g
     inkscape:label="Layer 1"
     inkscape:groupmode="layer"
     id="layer1"
     transform="translate(-0.43539848,-0.5849279)">
    <path
       id="path2444"
       style="color:#000000;-inkscape-font-specification:ESGARD;display:inline;fill:#000000;stroke-width:2.36038;stroke-linecap:round;stroke-linejoin:round;-inkscape-stroke:none"
       d="M 11.430598,0.58705734 C 7.9689285,0.49641734 5.1361785,3.3111973 5.2182085,6.7599463 5.2112085,6.4983973 2.4064185,24.964887 0.43539849,27.582925 26.124218,32.825168 8.1492685,40.325567 12.317198,41.224557 c -0.71936,1.076326 -1.44775,2.110224 -2.13691,3.194219 -0.8697895,1.367703 -1.1513695,3.026501 -0.7809895,4.602979 l 0.7232895,10.069692 c 0.29493,0.582861 0.6825,1.114464 1.14831,1.573501 l -3.1929995,17.12889 c 0.0309,0.70072 0.18397,1.39075 0.45283,2.03899 -0.68879,0.34382 -1.14641,0.55347 -2.6732,1.3831 -5.40494001,2.93858 -3.46902,11.10394 2.68453,11.32295 9.3722595,0.3305 20.5114195,-7.07323 29.0167595,-6.84828 5.58442,0.14631 8.37188,-6.67732 4.27176,-10.45717 -0.19472,-0.17942 -0.2476,-0.29154 -0.42604,-0.45931 1.51235,-1.90104 1.73472,-4.51965 0.5641,-6.64658 l -2.06788,-3.65868 c 1.00669,0.36628 2.75533,0.52325 3.92969,-0.69847 -5.37291,-2.9311 5.30459,-3.90671 4.03221,0.28894 0.68932,0.20992 1.4112,0.2957 2.13073,0.253 l -0.008,1.63407 c 0.20391,0.91661 0.61951,1.77308 1.21425,2.50138 -0.11235,0.17175 -0.21591,0.34892 -0.31013,0.53117 -1.2265,3.42117 -1.90896,5.64017 -2.30383,7.2147 -0.19743,0.78728 -0.32758,1.37744 -0.40955,2.11443 -0.041,0.36849 -0.10327,0.71829 -0.016,1.56683 0.0188,0.18275 0.20339,0.63249 0.25397,0.89606 l -0.0901,-0.0719 0.23646,1.02232 c 0.69112,2.98916 3.52385,4.98594 6.58332,4.63993 2.92325,-0.33093 6.20942,-0.27571 9.68255,-0.19707 0.0455,9.9e-4 0.091,0.002 0.13652,0.002 2.04298,0 5.25402,-0.15309 8.11954,-0.52142 2.97993,-0.42328 5.19508,-2.96282 5.20009,-5.96145 0.61748,0.77749 1.3181,1.52459 2.15443,2.20218 3.12409,2.53115 7.3462,3.74254 12.38615,3.88397 0.0567,0.002 0.11374,0.003 0.17052,0.003 2.22273,0 4.52823,-0.28688 6.87231,-0.78469 1.069282,1.42446 1.725042,4.93656 -0.98602,13.82895 l -2.99569,11.216712 c 0.028,0.533 0.14029,1.05783 0.34515,1.55092 -0.5238,0.26139 -0.87208,0.42098 -2.03335,1.05209 -4.11149,2.23538 -2.63887,8.44657 2.04212,8.61319 7.129412,0.25148 14.916082,-3.56651 21.386112,-3.39539 8.54914,0.32995 4.72371,-6.71863 1.60474,-9.59394 -0.14833,-0.13652 -0.18767,-0.22183 -0.32353,-0.3495 1.15046,-1.44612 2.96452,-1.79903 2.07406,-3.41695 l -1.5728,-2.78314 c 1.48085,0.95703 3.38021,0.98693 4.89048,0.0765 -1.07461,-1.35207 1.72847,-0.16702 2.78705,-0.19605 l -0.009,1.243 c 0.15453,0.69728 0.47141,1.34895 0.9242,1.90298 -0.0894,0.1307 -0.16437,0.26516 -0.23594,0.4039 -0.9329,2.60215 -1.45188,4.29012 -1.7526,5.48724 -0.15016,0.59851 -0.24898,1.04674 -0.31168,1.60686 -0.028,0.27998 -0.0806,0.54524 -0.0164,1.19064 0.0163,0.14086 0.15603,0.4866 0.19578,0.69129 l -0.0716,-0.0549 0.18083,0.77802 c 0.52827,2.27088 2.68195,3.78623 5.0069,3.52319 2.2239,-0.25177 4.72232,-0.20956 7.36431,-0.14985 0.0357,8.2e-4 0.071,9.9e-4 0.10355,9.9e-4 1.55409,0 3.99653,-0.11709 6.17632,-0.39722 1.73153,-0.2484 3.17241,-1.45252 3.719,-3.108 0.77136,0.80058 1.7359,1.55955 2.88905,2.07953 2.30131,1.03767 4.97228,1.32428 8.46264,1.12444 4.63797,-0.006 8.80413,-0.40038 12.7447,-0.2951 2.66344,1.30779 3.25327,2.51365 5.45252,5.2522 1.57419,2.03781 -0.63264,5.70937 -0.59862,5.36407 -0.24404,2.43401 1.47152,4.63101 3.89981,4.99404 1.14044,0.17029 2.59019,0.41848 4.37995,0.34231 4.05864,-0.0216 8.43823,-0.90043 12.51752,-2.68358 4.12974,-1.80518 8.05837,-7.8385 10.36309,-12.09019 0.43793,-0.81605 0.6186,-1.74516 0.51671,-2.6651 2.11179,1.12471 4.67558,1.69735 7.61468,1.77981 0.0445,9.9e-4 0.0896,0.002 0.12982,0.002 3.51087,0 8.93588,0.71613 12.69371,-0.68771 1.43161,-0.53494 2.50386,-1.74295 2.86123,-3.22398 0.9491,-3.93133 -0.16366,-6.08011 2.24561,-7.11464 0.24746,-0.10628 0.47695,-0.23102 0.69187,-0.36847 0.0839,0.017 0.16493,0.0403 0.25037,0.0539 l 13.0162,3.44723 c 1.85624,0.29553 3.74502,-0.28445 5.11199,-1.56991 2.92898,-2.75574 5.82924,-5.64559 8.5564,-8.4423 0.46541,-0.478132 0.84786,-1.029822 1.13234,-1.632522 l 15.12581,-9.70583 c 0.9636,-2.08253 0.65856,-4.5291 -0.78718,-6.3135 1.34507,-3.26837 0.78408,-8.20672 1.53417,-11.38249 0.40623,-2.00721 -0.2374,-4.0827 -1.70932,-5.51187 -2.30612,-1.41628 -3.02523,-2.05317 0.0211,-4.01998 -0.74083,-2.079849 4.38132,-14.852741 4.59116,-15.808399 2.0515,-3.521911 3.30555,-5.593076 5.83993,-10.868246 1.8343,-3.779105 -1.34931,-12.290626 -5.54319,-12.697327 -5.5936,-0.541755 -13.35588,4.398979 -18.22247,4.950936 -12.71429,-0.308919 -5.93279,2.77223 -8.26121,3.709994 -3.35156,1.469087 -7.26366,-0.401688 -9.54553,-0.873482 -4.63873,-2.027474 -3.54082,2.184596 -4.9832,3.724363 -2.86016,6.357968 0.23269,-3.478538 -7.63219,-1.740807 -0.57014,0.174764 -1.06444,0.438061 -1.60526,0.648184 -1.66255,-1.283461 -3.87467,-1.615536 -5.84302,-0.877076 -3.42108,1.499553 -6.39731,2.009977 -8.02269,1.387207 -3.19746,-1.224764 -6.77716,0.43468 -7.89596,3.660212 l -4.11464,8.765626 c -0.62874,-1.051015 0.28385,-3.861993 -0.27458,-4.899103 -0.11683,-0.216997 -0.13382,-0.283404 -0.22513,-0.4701 l 0.0257,-0.07544 c 1.51347,-4.338002 -2.20049,-8.702756 -6.74404,-7.925501 -6.36565,2.803257 -19.24283,3.888668 -21.17438,4.605545 -3.27937,0.787065 -4.86327,-2.413942 -6.79505,1.751586 -0.19019,0.410111 -0.71984,1.069448 -1.06227,1.542709 -0.62921,-2.36063 -2.62489,-4.110284 -5.05533,-4.431567 -5.43687,-0.65255 -11.36033,-1.395971 -16.81709,0.768275 -1.51075,-2.499614 -6.24623,-1.924998 -8.98399,-0.888366 -1.16884,0.490272 -3.47848,0.939627 -6.07227,1.466241 -1.07719,-0.739025 -2.36572,-1.111023 -3.67263,-1.059779 l -12.87143,0.865785 c -2.00012,0.268402 -3.73453,1.5122 -4.62516,3.316363 -0.0975,-4.089342 -4.16594,-6.898169 -8.04382,-5.553445 -3.978622,1.465949 -12.659352,1.719265 -16.913432,0.436741 -3.78098,-1.13987 -7.62772,1.574287 -7.80322,5.505716 -0.0214,0.480079 -1.10809,2.243022 -3.37022,3.784923 -0.98376,0.812153 -1.68464,1.913563 -2.00194,3.14649 -0.52218,-1.375067 -1.07895,-2.977377 -1.68975,-4.812882 0.0684,-0.374793 0.12676,-0.730646 0.21689,-1.220926 l 2.15597,-1.406709 c 2.44496,-1.595122 3.39678,-4.702565 2.26313,-7.386117 -0.58703,-1.389063 -0.82302,-5.557295 -2.76277,-10.146673 -1.12996,-2.674341 -4.01131,-7.445551 -6.85841,-6.83339 v -5.12e-4 c -5.11824,4.474846 -12.89355,1.922658 -22.12672,4.460074 -1.65413,0.55379 -2.98809,1.791932 -3.65975,3.396424 -1.04725,-2.629515 -7.07845,-14.0137697 -9.88192,-13.5636928 -4.2624,0.8607218 -14.012,-4.3430549 -19.98125,-9.20852486 z M 205.33723,39.182495 c 0.0285,-0.0014 0.11707,0.1018 0.16073,0.376182 -0.0391,-0.08882 -0.15016,-0.301304 -0.16537,-0.342823 -0.008,-0.02122 -0.005,-0.0329 0.005,-0.03336 z"
       sodipodi:nodetypes="cccccccccccccccccccccccssccccccsccscccccccccccccccccccccccccssccsccccccscccsccsccccccccccccccccccccccccsccccsccccccccccccccccccccccccscss" />
  </g>
</svg>
