<?xml version="1.0" encoding="UTF-8" standalone="no"?>
<!-- Created with Inkscape (http://www.inkscape.org/) -->

<svg
   width="288mm"
   height="133mm"
   viewBox="0 0 288 133"
   version="1.1"
   id="svg370"
   xmlns:inkscape="http://www.inkscape.org/namespaces/inkscape"
   xmlns:sodipodi="http://sodipodi.sourceforge.net/DTD/sodipodi-0.dtd"
   xmlns="http://www.w3.org/2000/svg"
   xmlns:svg="http://www.w3.org/2000/svg">
  <sodipodi:namedview
     id="namedview372"
     pagecolor="#ffffff"
     bordercolor="#000000"
     borderopacity="0.25"
     inkscape:showpageshadow="2"
     inkscape:pageopacity="0.0"
     inkscape:pagecheckerboard="0"
     inkscape:deskcolor="#d1d1d1"
     inkscape:document-units="mm"
     showgrid="false"
     inkscape:zoom="0.75722503"
     inkscape:cx="577.10718"
     inkscape:cy="219.8818"
     inkscape:window-width="1878"
     inkscape:window-height="1016"
     inkscape:window-x="42"
     inkscape:window-y="27"
     inkscape:window-maximized="1"
     inkscape:current-layer="layer1" />
  <defs
     id="defs367" />
  <g
     inkscape:label="Layer 1"
     inkscape:groupmode="layer"
     id="layer1">
    <path
       id="path2289"
       style="color:#000000;font-size:96px;-inkscape-font-specification:ESGARD;white-space:pre;fill:#000000;stroke-width:12.1464;stroke-linecap:round;stroke-linejoin:round;-inkscape-stroke:none"
       d="m 9.4041794,4.1448408 c 0.0792,3.3267596 -1.467353,13.4467202 -3.6059814,16.2982302 1.9802084,0 6.665911,2.391873 8.566919,2.233455 l 0.396358,5.306653 c 10.703709,2.940429 0.05286,14.65371 -1.452108,17.029968 l 0.725021,8.489404 c 0.633669,-1.108919 3.47225,-1.598694 4.264339,-2.549198 L 12.057764,76.38591 C 15.226101,80.98 10.236298,82.24773 6.7511114,84.14874 15.701682,84.46557 26.854074,77.01386 35.804635,77.25149 32.636288,74.32077 30.33937,71.46976 29.468071,66.71725 l 5.306653,1.89962 -6.018754,-10.69185 c 0.158409,-4.594095 0.791629,-9.030974 1.108459,-13.308231 2.138628,1.504963 5.068429,3.327106 6.494177,5.228105 l -0.633036,2.376599 c 2.455468,1.584172 4.673147,4.040117 5.782076,5.149037 l 2.217436,-3.01067 2.692859,1.74253 c 0.792089,-2.376258 1.188763,-6.890734 6.495727,-12.197702 l 1.345655,3.325895 -0.07906,16.239317 2.931604,2.2965 -2.377116,2.77193 c -2.376258,6.65352 -2.533986,8.39587 -2.375566,8.39587 l 0.237195,1.02939 c 3.485176,-0.39604 7.050614,-0.31589 10.535791,-0.23668 1.663378,0 4.911008,-0.15859 7.366475,-0.47542 l -0.238745,-1.34721 c -0.712869,-3.96042 0.237504,-5.22779 0.633553,-6.25749 -2.376257,-3.80201 -4.832055,-10.13765 -5.228104,-12.83075 2.455467,0.31683 5.150178,-0.79278 7.368025,-1.90169 -5.940644,-2.13863 -7.050755,-9.029699 -9.030973,-14.574303 0.15842,-1.108919 0.792427,-4.356005 0.950846,-5.385717 l 4.355807,-2.852539 c -1.267339,-3.009928 0.14596,-8.857057 -1.121379,-11.866976 -6.970353,4.906835 -16.6206,0.857998 -23.511743,2.759004 4.514886,3.643589 1.346375,7.60335 -0.475423,10.058818 1.742588,-0.158418 3.802283,-0.31603 5.544881,-0.157613 -2.376267,2.930711 -6.179119,7.12856 -8.080127,8.950358 C 39.368211,39.231505 32.583818,25.765977 30.207561,23.072884 l 3.089217,-0.554488 -2.613794,-9.664009 C 24.82155,14.042515 15.888763,9.5113584 9.4041794,4.1448408 Z M 279.53497,25.258281 c -5.47145,0.06323 -11.81723,4.224031 -17.16381,4.224031 0.47525,3.089136 -0.80528,6.25692 0.14522,9.425265 1.18813,-0.396043 1.20219,-0.951278 2.2319,-0.713652 0.23763,1.10892 -3.5295,11.268331 -3.5295,12.535669 -2.61388,-1.425754 -4.29038,-1.029541 -6.74584,0.475423 4.99013,3.960433 5.17487,11.551493 0.89762,16.541623 -1.34655,-3.16833 -3.80249,-6.57407 -5.14904,-8.39587 l 2.45618,-2.13992 c -2.21785,-2.05943 -0.64768,-6.876814 0.30282,-9.886733 0.63367,-0.07921 1.90172,0.396072 2.45618,0.554488 0.47526,-3.48517 6.03742,-15.35974 4.96611,-15.124658 l -3.8747,0.850077 c -4.22629,0.927388 -6.17135,0.430495 -10.36939,-0.4408 -2.21784,2.376258 -4.8217,10.67512 -4.66328,13.922665 l 3.32744,0.07906 c 0,3.722797 -3.07664,8.937961 -5.4529,11.789471 3.08914,4.7525 6.97047,8.69122 5.06946,14.23582 7.60402,1.18813 10.376,4.29818 15.28692,2.15956 0.0792,7.68321 -14.77644,13.02141 -17.86557,15.87293 -0.79209,-1.34654 -1.82142,-2.85179 -2.77193,-4.11914 l 0.31575,-0.31574 c 1.42575,0.95051 3.8031,-0.62096 5.38727,-1.57148 l 0.15813,-5.08238 c -0.76284,-14.18138 -18.89085,-5.79855 -17.4253,6.65386 -0.55446,1.50497 1.58394,2.85037 2.69286,4.03851 1.98022,2.05942 5.54397,5.07017 4.9103,7.525653 l 13.05605,3.471107 c 2.8515,-2.693087 5.7033,-5.544497 8.39638,-8.31681 l 15.17272,-9.77356 c -0.79209,-0.79208 -1.90074,-2.45555 -2.13837,-3.08922 1.90101,-3.72281 1.51808,-9.49184 2.46858,-13.53147 -1.26734,0.63367 -2.92976,2.06025 -4.51393,1.82262 0.71288,-8.47531 1.02839,-7.44505 3.0086,-7.99951 -0.87129,-2.45546 7.14223,-18.361209 7.69669,-20.895884 l -2.53525,0.315743 c 0.0792,-1.425755 -1.25364,0.846233 -0.69918,-0.73794 0.55446,-0.712877 2.6135,-2.376483 2.77192,-3.010152 l 2.805,-11.30422 c -0.35644,-0.03465 -0.71734,-0.04866 -1.08211,-0.04444 z m -54.00032,10.235551 c -150.356433,-23.662555 -75.17822,-11.831277 0,0 z m 0,0 c -3.22223,0.706411 -8.44804,1.351067 -10.82414,0.437182 l -4.73925,10.600387 c 0.15842,1.821798 1.74204,3.010957 3.72226,2.852539 0.0792,1.029712 0.39682,1.900458 -0.71211,2.2965 -2.05941,0.63367 -3.63185,7.66953 -2.76055,12.1052 l 1.26814,-0.55397 c 0.0792,4.75252 -0.87121,9.42653 -2.6138,13.86221 1.98022,0.0792 4.27758,0.23667 6.09937,0.23667 v -1.18752 l 0.0791,1.18752 c 3.48517,0 7.04959,-0.2375 10.53476,-0.63355 0,-2.69309 -0.47576,-5.38591 -1.42627,-7.84138 l -2.2965,0.31574 c -1.42575,-7.04956 1.09449,-18.362503 8.22327,-21.610048 0.55446,2.772293 -2.29667,4.436566 -4.19768,4.357357 0.0792,0.792086 -1.01588,7.193251 -0.77825,7.826911 7.04957,0.79209 15.1952,-7.668664 14.48232,-14.005345 -1.10892,-4.118848 -5.24176,-6.561875 -5.40018,-10.839132 -4.11884,1.267329 -9.0961,5.610227 -11.94759,8.620146 0.11875,-1.900077 1.52562,-6.06223 3.28713,-8.027417 z m -26.90378,-0.196371 c -5.06936,0.871294 -13.61102,4.25079 -18.75958,3.458704 -1.58418,0.712878 -3.4858,0.55446 -5.06997,0 -1.74259,3.009928 -4.35532,4.211143 -4.90978,7.617106 l 2.93109,0.07906 c -0.71287,1.900999 0.31577,3.644076 0.87023,5.14904 0.47525,1.742589 -5.05647,8.461909 -6.79907,10.521329 1.58418,2.93071 3.09068,6.02025 4.27881,9.18858 -0.23561,1.76584 -0.87824,2.47196 1.74201,6.01927 l 24.39644,-0.23719 c 0.63367,-6.73272 4.35535,-13.06989 9.74153,-17.98082 -7.28719,-0.79208 -6.34856,-5.45209 -7.14065,-12.739274 -1.10892,-1.900999 -2.31015,-7.908194 -1.9141,-9.254732 z m -57.09574,1.332735 c -4.89878,0 -12.58171,3.393214 -16.54214,6.165515 0.47525,-1.584172 2.29699,-2.613476 3.16828,-3.643188 l -12.91136,0.871781 -1.82108,11.088729 4.59456,-0.396358 c -0.47524,2.851501 -1.42694,5.623995 -2.77348,8.158675 0,0.9505 -0.0778,5.86022 0.0806,6.65231 l 0.13177,1.45262 c -0.15841,3.6436 -0.29134,5.99469 -2.35076,9.00462 5.22776,1.82179 9.98041,0.95019 15.60422,-0.39636 l 0.47542,-7.76283 -1.82108,0.47542 -0.96325,-0.0806 c -1.23389,-0.20773 -2.07624,-2.05021 1.12035,-7.5675 -5.56661,-10.568681 -0.97141,-7.480449 0.31833,-7.640361 1.10891,0.316835 0.49992,0.06197 2.7404,-0.03101 2.71385,-0.310498 3.3701,-1.935598 4.63744,-2.331641 -0.31683,3.802002 -0.56716,14.483092 -1.28003,18.047482 -0.31684,1.66338 1.18945,5.59435 1.26866,5.67356 l 0.0786,0.31574 c 2.9623,0.92369 5.7684,-2.59448 8.71368,0.66301 l 4.03851,2.21898 c -3.96042,-5.22777 -4.98921,-9.58477 -0.79116,-14.81253 -1.42575,-3.32676 -0.80519,-8.14481 -0.48835,-11.233943 2.37625,0.396042 4.75205,-0.793059 6.81147,-1.743563 -1.10891,8.633736 -2.52115,18.997286 -1.1746,27.551806 l 3.40496,-1.26658 c 2.45547,2.69309 5.94167,0.2365 8.55555,-0.23875 0.55446,0 1.97873,0.55434 2.53318,0.63355 -0.31683,-7.4456 -8.6452,-18.60097 1.73116,-22.00692 -5.30698,-3.009937 -8.71406,-9.122035 -5.94176,-15.617141 -6.57431,-0.792077 -16.39601,0.1724 -21.46535,4.845699 -0.55446,-2.29705 -0.15796,-4.753166 0.31729,-7.050216 z m -37.29488,0.778247 c -5.782227,2.138633 -14.811958,2.377829 -20.831802,0.556039 -0.15842,3.564379 -3.009354,6.494585 -6.019271,8.554 l 4.434871,0.475423 c -1.346548,3.168337 -2.468093,5.386891 -5.87406,8.159195 7.128773,7.92085 -1.571562,21.7022 15.299842,22.17745 3.405963,0 8.000253,-1.02947 12.43593,-2.69285 1.50497,-6.25747 4.04052,-9.42581 8.63462,-11.40603 -3.24755,-1.82178 -5.22803,-4.51577 -3.56465,-8.63461 -6.4951,-1.267338 -14.652977,3.01121 -17.425285,7.84293 1.504968,1.58417 3.643298,2.69212 5.861138,2.5337 0.55446,-0.63367 1.10849,-1.26662 1.66295,-1.82108 0.0792,3.08914 -3.16837,6.1784 -6.257499,5.62394 -1.584168,-1.02971 -3.326673,-4.75287 -2.613794,-7.20834 4.752503,-5.38618 11.64372,-8.555062 18.77249,-9.109522 -3.48517,-4.198049 -5.14915,-9.584858 -4.51548,-15.050245 z m -8.316807,8.080127 c -0.23763,0.712879 1.26835,3.327819 2.29805,3.407028 -3.00992,0.712877 -7.842406,4.117463 -9.268164,6.176882 -0.712879,-3.564375 3.564143,-8.791823 6.970114,-9.58391 z m 87.987907,2.786394 c 1.58417,0.158416 3.40518,0.316575 4.43488,0.712618 0.87129,2.613884 1.12316,8.699418 2.70732,11.154878 -3.08912,5.38618 0.39484,9.50524 -9.03097,8.71316 -0.55446,-2.21785 -2.37638,-4.9905 -3.6437,-7.20835 1.18812,-3.56437 4.10673,-9.887127 5.53247,-13.372306 z M 140.98839,74.72451 c -5.30238,1.14483 -13.03846,1.3098 -18.28054,2.75591 3.43444,2.77166 1.37085,3.89559 -0.015,5.76347 1.32562,-0.12064 2.89122,-0.24052 4.2168,-0.11989 -1.80758,2.2294 -4.69929,3.7725 -6.14537,5.15834 -1.74732,-1.98838 -4.39863,-3.04978 -6.20634,-5.0984 l 2.35025,-0.42168 -1.98851,-5.50199 c -5.06565,-1.57223 -8.81164,-1.35481 -13.39091,-1.47484 0.0631,2.53064 -2.154317,5.16945 -3.781167,7.33857 1.50636,0 3.313807,-0.12097 4.759917,-0.24133 l 0.30024,-0.91364 c 1.96807,5.5547 0.17349,9.87774 0.1819,9.94151 l -4.060217,17.52038 c 2.410097,3.49471 -1.38582,4.45899 -4.03696,5.90507 6.808677,0.24107 14.603527,-3.60121 21.412127,-3.42047 -2.41008,-2.2294 -4.15705,-4.39819 -4.81986,-8.01346 l 2.42104,0.41754 -2.96261,-7.106017 c 0.12008,-3.494723 0.60219,-6.869203 0.84336,-10.122903 1.62685,1.14483 3.85723,2.53041 4.94181,3.9765 l -0.48369,1.80816 c 1.86788,1.20506 3.55514,3.07303 4.3987,3.916563 l 1.68775,-2.289783 2.04846,1.32498 c 0.60252,-1.80765 0.9032,-5.24151 4.94026,-9.2785 l 2.67529,7.48068 -1.71307,7.40265 2.2288,1.74666 -1.80712,2.10891 c -1.80771,5.06133 -1.92868,6.38669 -1.80816,6.38669 l 0.18138,0.78342 c 2.65122,-0.30124 5.36227,-0.24055 8.01347,-0.18035 1.26531,0 3.73546,-0.1208 5.60327,-0.36174 l -0.17983,-1.02474 c -0.54242,-3.0127 0.18001,-3.97662 0.48163,-4.75992 -1.8076,-2.89219 -3.67579,-7.712007 -3.97702,-9.760637 1.86783,0.24106 3.91617,-0.602853 5.60327,-1.446423 -4.51901,-1.62686 -3.71199,-6.86891 -5.21828,-11.08667 0.12008,-0.84361 0.60174,1.63697 0.72192,0.8537 l 3.31452,-7.1205 c -0.96405,-2.28965 -1.49056,1.09438 -2.45463,-1.19527 z m 55.81572,5.31699 c -3.19348,2.53067 -11.87015,3.01224 -17.11214,2.1084 -5.42293,7.77275 5.00102,7.77265 -5.54333,16.328723 2.28965,1.50635 4.63939,3.977237 4.75992,5.845117 0.18115,1.38582 -0.5422,3.49445 -2.34973,3.67523 -0.18114,0.06 -1.86742,-0.42138 -2.1084,-0.48163 -0.0628,2.83192 2.22957,5.48246 5.12165,4.15685 -0.42136,2.04865 -2.16905,3.79585 -4.03696,4.75992 1.98844,2.22938 8.60867,4.76108 5.12165,11.01328 1.20509,0.18097 2.28994,0.36209 3.55534,0.30179 6.80873,0 15.78643,-6.43484 19.04018,-12.46022 -3.73576,-2.59094 -5.60404,-9.21811 -3.55534,-14.03842 -2.59096,1.32559 -5.42281,2.47047 -8.3752,2.71146 4.69979,-1.92809 8.8569,-5.965487 10.96574,-10.60503 l -4.21731,-1.26504 c -0.66261,-1.02433 -0.60304,-1.98844 0.24081,-3.91656 0.90382,-2.10888 0.12136,-3.91647 -0.54157,-5.54333 -0.42141,-0.84353 -0.72361,-1.74695 -0.9648,-2.59054 z m 25.68422,2.18333 c -148.325553,-54.816553 -74.16278,-27.408277 0,0 z m 0,0 c -4.07596,0.35264 -10.26869,0.58614 -12.84935,-0.19482 -0.12009,2.71142 -2.29042,4.94052 -4.58008,6.5071 l 3.37499,0.36121 c -1.02433,2.41016 -3.13377,4.09796 -5.72472,6.20686 5.42294,6.02537 -8.92456,14.86386 11.24479,15.22026 2.59094,0 9.38624,2.51698 12.76047,1.2516 1.14483,-4.76007 1.4218,-8.82015 4.91649,-10.3265 -2.47043,-1.385817 -3.97682,-3.435407 -2.71146,-6.56859 -4.94081,-0.96408 -11.14668,2.291073 -13.25552,5.96656 1.14483,1.20507 2.77145,2.04751 4.45864,1.92702 0.42137,-0.48201 0.84362,-0.96367 1.26504,-1.38545 0.0628,2.3499 -2.41003,4.70007 -4.75992,4.27829 -1.20505,-0.78333 -2.53073,-3.61501 -1.98851,-5.482867 3.61531,-4.097263 8.76075,-6.508053 14.18363,-6.929813 -2.21376,-2.66655 -7.18831,-8.85901 -6.33449,-10.83086 z m -60.63868,0.2868 c -1.00172,-0.0165 -2.04088,0.0314 -2.22157,0.2403 -5.02725,1.0686 -6.02587,-0.18035 -9.76168,-0.18035 -1.02431,1.86786 -1.44586,4.75942 -3.55482,5.36194 l 3.37499,4.038 c 5.23781,-0.36791 3.20634,-2.57801 5.67666,-2.39727 1.26535,-0.60247 3.86257,-0.44455 6.07198,0.46922 0.12009,0.72312 0.12033,1.56674 0.063,1.98851 -2.41021,-0.12028 -4.9406,1.32512 -7.29051,1.20458 -4.2178,-0.54223 -7.35003,3.072993 -9.33845,11.5688 6.80871,0.48198 0.78162,7.9534 13.43536,7.17011 4.57926,0 9.03899,-0.4825 13.61829,-0.30179 v -6.74843 c -1.02422,0.06 -2.77291,-0.66262 -2.89336,-2.04845 0.54239,-2.4704 0.60341,-5.121037 0.96479,-7.65173 0.90378,0.54226 1.92782,0.90351 2.89182,1.265043 -0.48237,-3.434493 1.50627,-6.748983 -3.49488,-8.556593 -0.36117,-0.96403 -0.78264,-2.5304 -0.9033,-3.67522 -0.12009,-0.0601 -2.82605,-1.3162 -2.94659,-1.3162 -0.0281,-0.0312 -2.68744,-0.41541 -3.68918,-0.43047 z m 57.30916,5.24206 c -0.18113,0.54226 0.96394,2.53129 1.74719,2.59157 -2.28958,0.54223 -5.96572,3.13182 -7.05022,4.69843 -0.54244,-2.71142 2.71211,-6.68746 5.30303,-7.29 z m -27.29549,1.32498 h 5.2e-4 c 0.42134,1.68711 1.20541,4.45927 1.44642,5.84513 -0.54249,0.6025 -3.07375,2.169843 -6.8094,3.796663 -0.42141,-0.72301 -1.0239,-1.50649 -1.38545,-1.98851 0.24105,-1.084573 0.72273,-3.555553 1.2051,-5.724713 l 0.24081,0.54312 c 1.80763,1.14481 3.61483,-1.08586 5.302,-2.47169 z m -31.98978,8.702323 c 1.62488,0.0823 2.95897,1.7561 2.22468,3.469547 -0.28098,0.0618 -1.28882,0.59945 -1.28882,0.59945 l 0.3018,2.36264 1.16737,1.01441 v 0.24185 c -1.02419,1.08455 -3.55477,1.26465 -4.75992,0.54157 -0.0628,-1.38584 -3.43347,-4.03644 -2.71043,-4.94027 1.14484,-1.0243 3.19253,-1.506567 3.91552,-3.073197 0.38383,-0.16927 0.77447,-0.23451 1.1498,-0.21549 z m 33.55713,12.447807 c 0.1201,0.66276 0.0628,2.10883 0,3.13315 -0.42138,-0.42175 -0.98274,0.48111 -1.52497,0.30024 0.84366,3.31393 -1.72931,3.37481 -5.10357,4.51962 -0.54246,-0.54226 -1.02434,-0.96442 -1.50636,-1.44643 -0.0628,0 -0.12041,-0.0599 -0.12041,-0.0599 2.3498,-0.54227 4.03708,-3.37427 4.3987,-5.12165 -0.84368,-0.06 -2.10862,-0.0607 -2.47014,-1.02475 2.10884,0 4.94091,-0.1798 6.32675,-0.30024 z"
       sodipodi:nodetypes="ccccccccccccccccccccccccccccccccccccccccccccsccccccccccccccccccccccccccccccccccccccssccscccccccccccccccccccssccccccccccccccscccccccccccccccccccccccccccccccccsccccccccccccccccccccccccccccccccccccccccccccccccccccccccccccccccccccccccccccccccccccccccccccccccccccccccccccccccccccccccccccccccccccccccccccccccccccccccccccccsc" />
  </g>
</svg>
